<?xml version="1.0" encoding="UTF-8"?>
<svg width="40px" height="40px" viewBox="0 0 40 40" version="1.1" xmlns="http://www.w3.org/2000/svg" xmlns:xlink="http://www.w3.org/1999/xlink">
    <!-- Generator: Sketch 63.1 (92452) - https://sketch.com -->
    <title>Group</title>
    <desc>Created with Sketch.</desc>
    <g id="Page-1" stroke="none" stroke-width="1" fill="none" fill-rule="evenodd">
        <g id="Group">
            <path d="M0,20 C0,9 9,0 20,0 C31,0 40,9 40,20 C40,31 31,40 20,40 C9,40 0,31 0,20 Z" id="Shape" fill="#00E478" fill-rule="nonzero" transform="translate(20.000000, 20.000000) scale(-1, 1) rotate(-180.000000) translate(-20.000000, -20.000000) "></path>
            <path d="M10.1022727,31 L27.1136364,8 L30.8977273,8 L13.8181818,31 L10.1022727,31 Z M12.625,21.2085714 C8.97727273,21.2085714 7,18.1528571 7,14.7357143 C7,10.3328571 9.79545455,8.26285714 12.625,8.26285714 C15.7272727,8.26285714 18.25,10.4971429 18.25,14.7357143 C18.25,18.1528571 16.3068182,21.2085714 12.625,21.2085714 Z M12.625,18.3171429 C14.1590909,18.3171429 14.875,17.0357143 14.875,14.7357143 C14.875,12.1728571 14.0568182,11.1214286 12.625,11.1214286 C11.2954545,11.1214286 10.3409091,12.14 10.3409091,14.7357143 C10.3409091,17.0357143 11.0909091,18.3171429 12.625,18.3171429 Z M28.3409091,30.77 C25.2727273,30.77 22.75,28.5357143 22.75,24.2971429 C22.75,20.88 24.6931818,17.8571429 28.3409091,17.8571429 C31.9886364,17.8571429 34,20.88 34,24.2971429 C34,28.7 31.2045455,30.77 28.3409091,30.77 Z M28.3409091,27.8785714 C29.6363636,27.8785714 30.625,26.8928571 30.625,24.2971429 C30.625,21.9642857 29.9090909,20.7157143 28.3409091,20.7157143 C26.8409091,20.7157143 26.0909091,21.9642857 26.0909091,24.2971429 C26.0909091,26.8271429 26.875,27.8785714 28.3409091,27.8785714 Z" id="%" fill="#002C66"></path>
        </g>
    </g>
</svg>