<?xml version="1.0" encoding="UTF-8"?>
<svg width="134px" height="120px" viewBox="0 0 134 120" version="1.1" xmlns="http://www.w3.org/2000/svg" xmlns:xlink="http://www.w3.org/1999/xlink">
    <!-- Generator: Sketch 63.1 (92452) - https://sketch.com -->
    <title>Group 9</title>
    <desc>Created with Sketch.</desc>
    <g id="Page-1" stroke="none" stroke-width="1" fill="none" fill-rule="evenodd">
        <g id="Group-9">
            <path d="M0,65 C0,34.75 24.75,10 55,10 C85.25,10 110,34.75 110,65 C110,95.25 85.25,120 55,120 C24.75,120 0,95.25 0,65 Z" id="Shape-Copy-5" fill="#0274FF" fill-rule="nonzero" transform="translate(55.000000, 65.000000) scale(-1, 1) rotate(-180.000000) translate(-55.000000, -65.000000) "></path>
            <path d="M58,58 L87,58 L87,51 L58,51 L58,58 Z M58,69 L87,69 L87,62 L58,62 L58,69 Z M58,80 L87,80 L87,73 L58,73 L58,80 Z M53,80 L23,80 L23,77.5604566 C23,72.6820146 33.0002203,70 38,70 C42.9997797,70 53,72.6820146 53,77.5604566 L53,80 Z M38.5,51 C42.6505111,51 46,54.3494889 46,58.5 C46,62.6505111 42.6505111,66 38.5,66 C34.3494889,66 31,62.6505111 31,58.5 C31,54.3494889 34.3494889,51 38.5,51 L38.5,51 Z M89.0043601,43 L20.9956399,43 C18.2234395,43 16,45.2497356 16,48.0004406 L16,83.0002203 C16,85.7489425 18.2234395,88 20.9956399,88 L89.0043601,88 C91.7508064,88 94,85.7489425 94,83.0002203 L94,48.0004406 C94,45.2497356 91.7508064,43 89.0043601,43 L89.0043601,43 Z" id="Fill-1" fill="#FFFFFF"></path>
            <g id="Group-7-Copy-3" transform="translate(84.000000, 0.000000)">
                <circle id="Oval" fill="#002C66" cx="25" cy="25" r="25"></circle>
                <path d="M30.772,33 L30.772,30.624 L23.02,30.624 C23.788,27.648 30.7,26.928 30.7,21.744 C30.7,18.72 28.564,16.848 25.012,16.848 C21.292,16.848 19.036,18.96 19.036,22.392 L21.94,22.392 C21.94,20.352 22.996,19.248 24.916,19.248 C26.764,19.248 27.724,20.28 27.724,21.816 C27.724,26.16 19.588,25.32 19.588,33 L30.772,33 Z" id="2" fill="#FFFFFF" fill-rule="nonzero"></path>
            </g>
        </g>
    </g>
</svg>