<?xml version="1.0" encoding="UTF-8"?>
<svg width="40px" height="40px" viewBox="0 0 40 40" version="1.1" xmlns="http://www.w3.org/2000/svg" xmlns:xlink="http://www.w3.org/1999/xlink">
    <!-- Generator: Sketch 63.1 (92452) - https://sketch.com -->
    <title>thumb_up_alt-24px copy 2</title>
    <desc>Created with Sketch.</desc>
    <g id="Page-1" stroke="none" stroke-width="1" fill="none" fill-rule="evenodd">
        <g id="thumb_up_alt-24px-copy-2">
            <path d="M20,0 C8.96,0 0,8.96 0,20 C0,31.04 8.96,40 20,40 C31.04,40 40,31.04 40,20 C40,8.96 31.04,0 20,0 Z" id="Path" fill="#0274FF"></path>
            <g id="home_work-24px" transform="translate(8.800000, 9.600000)" fill="#FFFFFF" fill-rule="nonzero">
                <path d="M20.4,0 L10.8,0 C10.14,0 9.6,0.54 9.6,1.2 L9.6,3.132 C9.6,3.132 9.6,3.132 9.612,3.144 L15.612,8.544 C16.368,9.216 16.8,10.2 16.8,11.22 L16.8,12 L19.2,12 L19.2,14.4 L16.8,14.4 L16.8,16.8 L19.2,16.8 L19.2,19.2 L16.8,19.2 L16.8,21.6 L20.4,21.6 C21.06,21.6 21.6,21.06 21.6,20.4 L21.6,1.2 C21.6,0.54 21.06,0 20.4,0 Z M14.4,4.8 L12,4.8 L12,2.4 L14.4,2.4 L14.4,4.8 Z M19.2,9.6 L16.8,9.6 L16.8,7.2 L19.2,7.2 L19.2,9.6 Z M19.2,4.8 L16.8,4.8 L16.8,2.4 L19.2,2.4 L19.2,4.8 Z" id="Shape"></path>
                <path d="M14.4,20.4 L14.4,11.22 C14.4,10.884 14.256,10.56 14.004,10.332 L8.004,4.932 C7.776,4.716 7.488,4.62 7.2,4.62 C6.912,4.62 6.624,4.728 6.396,4.932 L0.396,10.332 C0.144,10.548 0,10.872 0,11.22 L0,20.4 C0,21.06 0.54,21.6 1.2,21.6 L3.6,21.6 C4.26,21.6 4.8,21.06 4.8,20.4 L4.8,15.6 L9.6,15.6 L9.6,20.4 C9.6,21.06 10.14,21.6 10.8,21.6 L13.2,21.6 C13.86,21.6 14.4,21.06 14.4,20.4 Z" id="Shape"></path>
            </g>
        </g>
    </g>
</svg>