<?xml version="1.0" encoding="UTF-8"?>
<svg width="112px" height="112px" viewBox="0 0 112 112" version="1.1" xmlns="http://www.w3.org/2000/svg" xmlns:xlink="http://www.w3.org/1999/xlink">
    <!-- Generator: Sketch 63.1 (92452) - https://sketch.com -->
    <title>Group 2</title>
    <desc>Created with Sketch.</desc>
    <g id="Page-1" stroke="none" stroke-width="1" fill="none" fill-rule="evenodd">
        <g id="Group-2">
            <path d="M0,56 C0,25.2 25.2,0 56,0 C86.8,0 112,25.2 112,56 C112,86.8 86.8,112 56,112 C25.2,112 0,86.8 0,56 Z" id="Shape-Copy-7" fill="#0074FF" fill-rule="nonzero" transform="translate(56.000000, 56.000000) scale(-1, 1) rotate(-180.000000) translate(-56.000000, -56.000000) "></path>
            <path d="M32.8,44.8 L80,44.8 L80,39.2 L32.8,39.2 L32.8,44.8 Z M32.8,74.4 L80,74.4 L80,56.8 L32.8,56.8 L32.8,74.4 Z M79.68,32.8 L32.32,32.8 C29.0348045,32.8 26.429122,35.4259031 26.429122,38.7 L26.4,74.1 C26.4,77.3726311 29.0348045,80 32.32,80 L79.68,80 C82.9637247,80 85.6,77.3726311 85.6,74.1 L85.6,38.7 C85.6,35.4259031 82.9637247,32.8 79.68,32.8 L79.68,32.8 Z" id="Fill-1" fill="#FFFFFF"></path>
        </g>
    </g>
</svg>