<?xml version="1.0" encoding="UTF-8"?>
<svg width="113px" height="100px" viewBox="0 0 113 100" version="1.1" xmlns="http://www.w3.org/2000/svg" xmlns:xlink="http://www.w3.org/1999/xlink">
    <!-- Generator: Sketch 63.1 (92452) - https://sketch.com -->
    <title>Group 2</title>
    <desc>Created with Sketch.</desc>
    <g id="Page-1" stroke="none" stroke-width="1" fill="none" fill-rule="evenodd">
        <g id="Group-2">
            <path d="M0,54 C0,28.7 20.7,8 46,8 C71.3,8 92,28.7 92,54 C92,79.3 71.3,100 46,100 C20.7,100 0,79.3 0,54 Z" id="Shape" fill="#0274FF" fill-rule="nonzero" transform="translate(46.000000, 54.000000) scale(-1, 1) rotate(-180.000000) translate(-46.000000, -54.000000) "></path>
            <g id="Group-7" transform="translate(71.000000, 0.000000)">
                <circle id="Oval" fill="#002C66" cx="21" cy="21" r="21"></circle>
                <path d="M21.192,29.312 C24.816,29.312 27.168,26.96 27.168,23.696 C27.168,20.432 24.912,18.464 21.648,18.464 C20.304,18.464 19.056,18.872 18.12,19.568 L18.552,15.44 L26.112,15.44 L26.112,13.04 L16.296,13.04 L15.48,21.008 L17.568,21.92 C18.576,21.248 19.776,20.888 20.904,20.888 C23.088,20.888 24.36,21.968 24.36,23.816 C24.36,25.664 23.136,26.84 21.168,26.84 C19.272,26.84 17.832,25.904 17.712,24.104 L14.88,24.104 C15.144,27.608 17.784,29.312 21.192,29.312 Z" id="5" fill="#FFFFFF" fill-rule="nonzero"></path>
            </g>
            <g id="local_atm-24px" transform="translate(23.000000, 37.000000)" fill="#FFFFFF" fill-rule="nonzero">
                <path d="M20.7,28.4375 L25.3,28.4375 L25.3,26.25 L27.6,26.25 C28.865,26.25 29.9,25.265625 29.9,24.0625 L29.9,17.5 C29.9,16.296875 28.865,15.3125 27.6,15.3125 L20.7,15.3125 L20.7,13.125 L29.9,13.125 L29.9,8.75 L25.3,8.75 L25.3,6.5625 L20.7,6.5625 L20.7,8.75 L18.4,8.75 C17.135,8.75 16.1,9.734375 16.1,10.9375 L16.1,17.5 C16.1,18.703125 17.135,19.6875 18.4,19.6875 L25.3,19.6875 L25.3,21.875 L16.1,21.875 L16.1,26.25 L20.7,26.25 L20.7,28.4375 Z M41.4,0 L4.6,0 C2.047,0 0.023,1.946875 0.023,4.375 L0,30.625 C0,33.053125 2.047,35 4.6,35 L41.4,35 C43.953,35 46,33.053125 46,30.625 L46,4.375 C46,1.946875 43.953,0 41.4,0 Z M41.4,30.625 L4.6,30.625 L4.6,4.375 L41.4,4.375 L41.4,30.625 Z" id="Shape"></path>
            </g>
        </g>
    </g>
</svg>