<?xml version="1.0" encoding="UTF-8"?>
<svg width="40px" height="40px" viewBox="0 0 40 40" version="1.1" xmlns="http://www.w3.org/2000/svg" xmlns:xlink="http://www.w3.org/1999/xlink">
    <!-- Generator: Sketch 63.1 (92452) - https://sketch.com -->
    <title>Group 4</title>
    <desc>Created with Sketch.</desc>
    <g id="Page-1" stroke="none" stroke-width="1" fill="none" fill-rule="evenodd">
        <g id="Group-4" fill-rule="nonzero">
            <path d="M0,20 C0,9 9,0 20,0 C31,0 40,9 40,20 C40,31 31,40 20,40 C9,40 0,31 0,20 Z" id="Shape-Copy-7" fill="#00E478" transform="translate(20.000000, 20.000000) scale(-1, 1) rotate(-180.000000) translate(-20.000000, -20.000000) "></path>
            <path d="M8,31 L10.0645161,31 C10.6322581,31 11.0967742,30.4909091 11.0967742,29.8686869 L11.0967742,19.6868687 C11.0967742,19.0646465 10.6322581,18.5555556 10.0645161,18.5555556 L8,18.5555556 L8,31 Z M31.7981935,22.6933333 C31.9287742,22.4016667 32,22.0866667 32,21.76 L32,20.5 C32,19.2166667 30.9316129,18.1666667 29.6258065,18.1666667 L23.0967742,18.1666667 L24.1889032,12.7416667 C24.2482581,12.485 24.2126452,12.205 24.0939355,11.9716667 C23.8209032,11.4466667 23.4766452,10.9683333 23.0492903,10.5483333 L22.5032258,10 L14.8939355,17.4783333 C14.4428387,17.9216667 14.1935484,18.5166667 14.1935484,19.135 L14.1935484,28.2816667 C14.1935484,29.775 15.44,31 16.9713548,31 L26.5987097,31 C27.4296774,31 28.2131613,30.5683333 28.6405161,29.8683333 L31.7981935,22.6933333 Z" id="Shape" fill="#002C66"></path>
        </g>
    </g>
</svg>