<?xml version="1.0" encoding="UTF-8"?>
<svg width="40px" height="40px" viewBox="0 0 40 40" version="1.1" xmlns="http://www.w3.org/2000/svg" xmlns:xlink="http://www.w3.org/1999/xlink">
    <!-- Generator: Sketch 63.1 (92452) - https://sketch.com -->
    <title>Group 12</title>
    <desc>Created with Sketch.</desc>
    <g id="Page-1" stroke="none" stroke-width="1" fill="none" fill-rule="evenodd">
        <g id="Group-12">
            <path d="M20,0 C8.96,0 0,8.96 0,20 C0,31.04 8.96,40 20,40 C31.04,40 40,31.04 40,20 C40,8.96 31.04,0 20,0 Z" id="Path" fill="#0274FF"></path>
            <path d="M10.3367003,31.5151515 L27.1380471,8.48484848 L30.8754209,8.48484848 L14.006734,31.5151515 L10.3367003,31.5151515 Z M12.8282828,21.7108225 C9.22558923,21.7108225 7.27272727,18.6510823 7.27272727,15.2294372 C7.27272727,10.8207792 10.03367,8.74805195 12.8282828,8.74805195 C15.8922559,8.74805195 18.3838384,10.9852814 18.3838384,15.2294372 C18.3838384,18.6510823 16.4646465,21.7108225 12.8282828,21.7108225 Z M12.8282828,18.8155844 C14.3434343,18.8155844 15.0505051,17.5324675 15.0505051,15.2294372 C15.0505051,12.6632035 14.2424242,11.6103896 12.8282828,11.6103896 C11.5151515,11.6103896 10.5723906,12.630303 10.5723906,15.2294372 C10.5723906,17.5324675 11.3131313,18.8155844 12.8282828,18.8155844 Z M28.3501684,31.2848485 C25.3198653,31.2848485 22.8282828,29.047619 22.8282828,24.8034632 C22.8282828,21.3818182 24.7474747,18.3549784 28.3501684,18.3549784 C31.952862,18.3549784 33.9393939,21.3818182 33.9393939,24.8034632 C33.9393939,29.2121212 31.1784512,31.2848485 28.3501684,31.2848485 Z M28.3501684,28.3896104 C29.6296296,28.3896104 30.6060606,27.4025974 30.6060606,24.8034632 C30.6060606,22.4675325 29.8989899,21.217316 28.3501684,21.217316 C26.8686869,21.217316 26.1279461,22.4675325 26.1279461,24.8034632 C26.1279461,27.3367965 26.9023569,28.3896104 28.3501684,28.3896104 Z" id="%" fill="#FFFFFF"></path>
        </g>
    </g>
</svg>