<?xml version="1.0" encoding="UTF-8"?>
<svg width="135px" height="120px" viewBox="0 0 135 120" version="1.1" xmlns="http://www.w3.org/2000/svg" xmlns:xlink="http://www.w3.org/1999/xlink">
    <!-- Generator: Sketch 63.1 (92452) - https://sketch.com -->
    <title>Group 10</title>
    <desc>Created with Sketch.</desc>
    <defs>
        <polygon id="path-1" points="0.000255737705 0.000341176471 51.5737705 0.000341176471 51.5737705 57.3367529 0.000255737705 57.3367529"></polygon>
    </defs>
    <g id="Page-1" stroke="none" stroke-width="1" fill="none" fill-rule="evenodd">
        <g id="Group-10">
            <path d="M0,65 C0,34.75 24.75,10 55,10 C85.25,10 110,34.75 110,65 C110,95.25 85.25,120 55,120 C24.75,120 0,95.25 0,65 Z" id="Shape-Copy-6" fill="#0274FF" fill-rule="nonzero" transform="translate(55.000000, 65.000000) scale(-1, 1) rotate(-180.000000) translate(-55.000000, -65.000000) "></path>
            <g id="Group-3" transform="translate(29.000000, 36.000000)">
                <mask id="mask-2" fill="white">
                    <use xlink:href="#path-1"></use>
                </mask>
                <g id="Clip-2"></g>
                <path d="M20.056059,45.8689588 L8.59645246,34.4020176 L12.6362557,30.3590765 L20.056059,37.7557824 L38.9371738,18.8639882 L42.978682,22.9342235 L20.056059,45.8689588 Z M25.787141,5.73381176 C27.3616328,5.73381176 28.6522557,7.02431176 28.6522557,8.60054706 C28.6522557,10.1767824 27.3616328,11.4672824 25.787141,11.4672824 C24.2117967,11.4672824 22.9211738,10.1767824 22.9211738,8.60054706 C22.9211738,7.02431176 24.2117967,5.73381176 25.787141,5.73381176 L25.787141,5.73381176 Z M45.8429443,5.73381176 L33.8676,5.73381176 C32.6647803,2.40734118 29.5115344,0.000341176471 25.787141,0.000341176471 C22.0627475,0.000341176471 18.9103541,2.40734118 17.7075344,5.73381176 L5.73048525,5.73381176 C2.5780918,5.73381176 0.000255737705,8.31395882 0.000255737705,11.4672824 L0.000255737705,51.6032824 C0.000255737705,54.7557529 2.5780918,57.3367529 5.73048525,57.3367529 L45.8429443,57.3367529 C48.9936328,57.3367529 51.5740262,54.7557529 51.5740262,51.6032824 L51.5740262,11.4672824 C51.5740262,8.31395882 48.9936328,5.73381176 45.8429443,5.73381176 L45.8429443,5.73381176 Z" id="Fill-1" fill="#FFFFFF" mask="url(#mask-2)"></path>
            </g>
            <g id="Group-7-Copy-4" transform="translate(85.000000, 0.000000)">
                <circle id="Oval" fill="#002C66" cx="25" cy="25" r="25"></circle>
                <path d="M25.156,33.312 C28.66,33.312 30.964,31.464 30.964,28.608 C30.964,27.096 29.956,25.416 27.964,24.888 C29.812,24.264 30.652,22.776 30.652,21.264 C30.652,18.648 28.252,16.848 25.012,16.848 C21.748,16.848 19.084,18.408 18.988,22.08 L21.868,22.08 C21.868,20.28 23.116,19.248 24.82,19.248 C26.548,19.248 27.82,20.184 27.82,21.648 C27.82,23.136 26.572,23.904 24.052,23.904 L24.052,25.92 C26.692,25.92 28.156,26.808 28.156,28.488 C28.156,30 27.124,30.84 25.18,30.84 C23.284,30.84 21.916,29.904 21.844,28.2 L19.012,28.2 C19.3,31.704 21.796,33.312 25.156,33.312 Z" id="3" fill="#FFFFFF" fill-rule="nonzero"></path>
            </g>
        </g>
    </g>
</svg>