<?xml version="1.0" encoding="UTF-8"?>
<svg width="8px" height="20px" viewBox="0 0 8 20" version="1.1" xmlns="http://www.w3.org/2000/svg" xmlns:xlink="http://www.w3.org/1999/xlink">
    <!-- Generator: Sketch 57.1 (83088) - https://sketch.com -->
    <title>24px-(5)</title>
    <desc>Created with Sketch.</desc>
    <g id="Symbols" stroke="none" stroke-width="1" fill="none" fill-rule="evenodd">
        <g id="Header" transform="translate(-945.000000, -37.000000)" fill="#002C66">
            <g id="24px-(5)">
                <g transform="translate(940.000000, 37.000000)">
                    <path d="M16.0444444,12.6444444 C15.1,12.6444444 14.1933333,12.4933333 13.3471111,12.2137778 C13.0826667,12.1306667 12.788,12.1911111 12.5764444,12.3951111 L10.9142222,14.0573333 C8.776,12.9693333 7.02311111,11.224 5.93511111,9.07822222 L7.59733333,7.40844444 C7.80888889,7.212 7.86933333,6.91733333 7.78622222,6.65288889 C7.50666667,5.80666667 7.35555556,4.9 7.35555556,3.95555556 C7.35555556,3.54 7.01555556,3.2 6.6,3.2 L3.95555556,3.2 C3.54,3.2 3.2,3.54 3.2,3.95555556 C3.2,11.0502222 8.94977778,16.8 16.0444444,16.8 C16.46,16.8 16.8,16.46 16.8,16.0444444 L16.8,13.4 C16.8,12.9844444 16.46,12.6444444 16.0444444,12.6444444 Z" id="Shape" transform="translate(10.000000, 10.000000) rotate(45.000000) translate(-10.000000, -10.000000) "></path>
                </g>
            </g>
        </g>
    </g>
</svg>