<?xml version="1.0" encoding="UTF-8"?>
<svg width="113px" height="100px" viewBox="0 0 113 100" version="1.1" xmlns="http://www.w3.org/2000/svg" xmlns:xlink="http://www.w3.org/1999/xlink">
    <!-- Generator: Sketch 63.1 (92452) - https://sketch.com -->
    <title>Group 2</title>
    <desc>Created with Sketch.</desc>
    <g id="Page-1" stroke="none" stroke-width="1" fill="none" fill-rule="evenodd">
        <g id="Group-2">
            <path d="M0,54 C0,28.7 20.7,8 46,8 C71.3,8 92,28.7 92,54 C92,79.3 71.3,100 46,100 C20.7,100 0,79.3 0,54 Z" id="Shape" fill="#0274FF" fill-rule="nonzero" transform="translate(46.000000, 54.000000) scale(-1, 1) rotate(-180.000000) translate(-46.000000, -54.000000) "></path>
            <g id="Group-3" transform="translate(27.000000, 31.000000)" fill="#FFFFFF" fill-rule="nonzero">
                <g id="Group-4">
                    <g id="post_add-24px" transform="translate(0.000000, 7.525000)">
                        <g id="Group">
                            <path d="M31.0355376,31.5360994 L4.43364822,31.5360994 L4.43364822,4.49488304 L19.951417,4.49488304 L19.951417,0.0691520468 L4.43364822,0.0691520468 C1.9951417,0.0691520468 0,2.06073099 0,4.49488304 L0,31.049269 C0,33.4834211 1.9951417,35.475 4.43364822,35.475 L31.0355376,35.475 C33.4740441,35.475 35.4691858,33.4834211 35.4691858,31.049269 L35.4691858,15.5592105 L31.0355376,15.5592105 L31.0355376,31.5360994 Z" id="Path"></path>
                            <rect id="Rectangle" x="8.86729645" y="8.92061404" width="17.7345929" height="4.42573099"></rect>
                            <polygon id="Path" points="8.86729645 15.5592105 8.86729645 19.9849415 26.6018893 19.9849415 26.6018893 15.5592105 19.951417 15.5592105"></polygon>
                            <rect id="Rectangle" x="8.86729645" y="22.197807" width="17.7345929" height="4.42573099"></rect>
                        </g>
                    </g>
                    <g id="create-24px" transform="translate(22.615385, 0.000000)" stroke="#0274FF" stroke-width="2">
                        <path d="M11.9091152,2.01850947 L-1,14.9045727 L-1,20.35 L4.45159089,20.35 L17.362495,7.46215109 L11.9091152,2.01850947 Z M11.6457838,2.28137064 L17.0991636,7.72501226 L19.7761337,5.05282242 C20.1822122,4.6474691 20.3846154,4.11722897 20.3846154,3.58731426 C20.3846154,3.05739955 20.1822122,2.52715942 19.7761337,2.1218061 L17.2564837,-0.393344574 C16.851105,-0.797999386 16.3209109,-1 15.7908837,-1 C15.2608566,-1 14.7306625,-0.797999386 14.3252838,-0.393344574 L11.6457838,2.28137064 Z" id="Shape"></path>
                    </g>
                </g>
            </g>
            <g id="Group-7" transform="translate(71.000000, 0.000000)">
                <circle id="Oval" fill="#002C66" cx="21" cy="21" r="21"></circle>
                <path d="M25.152,29 L25.152,25.28 L27.792,25.28 L27.792,22.928 L25.152,22.928 L25.152,13.04 L22.416,13.04 L14.592,23.264 L14.592,25.28 L22.32,25.28 L22.32,29 L25.152,29 Z M22.32,22.928 L17.616,22.928 L22.32,16.712 L22.32,22.928 Z" id="4" fill="#FFFFFF" fill-rule="nonzero"></path>
            </g>
        </g>
    </g>
</svg>