<?xml version="1.0" encoding="UTF-8"?>
<svg width="112px" height="112px" viewBox="0 0 112 112" version="1.1" xmlns="http://www.w3.org/2000/svg" xmlns:xlink="http://www.w3.org/1999/xlink">
    <!-- Generator: Sketch 63.1 (92452) - https://sketch.com -->
    <title>Group</title>
    <desc>Created with Sketch.</desc>
    <defs>
        <polygon id="path-1" points="0.608978286 0.646416774 68.3799924 0.646416774 68.3799924 40.8 0.608978286 40.8"></polygon>
        <polygon id="path-3" points="0 0.440482857 64.5222764 0.440482857 64.5222764 36.5169686 0 36.5169686"></polygon>
    </defs>
    <g id="Page-1" stroke="none" stroke-width="1" fill="none" fill-rule="evenodd">
        <g id="Group">
            <path d="M0,56 C0,25.2 25.2,0 56,0 C86.8,0 112,25.2 112,56 C112,86.8 86.8,112 56,112 C25.2,112 0,86.8 0,56 Z" id="Shape-Copy-6" fill="#0074FF" fill-rule="nonzero" transform="translate(56.000000, 56.000000) scale(-1, 1) rotate(-180.000000) translate(-56.000000, -56.000000) "></path>
            <g id="Group-13" transform="translate(20.000000, 22.400000)">
                <path d="M37.6,36 L37.6,42.4 C40.035174,42.1919515 41.6,41.0807986 41.6,39.3381415 C41.6,37.2857531 39.8544573,36.5184488 37.6,36" id="Fill-1" fill="#FFFFFF"></path>
                <path d="M31.2,28.6933105 C31.2,30.6506518 32.5662636,31.4686044 34.4,32 L34.4,25.6 C32.2668781,25.8482582 31.2,26.9520838 31.2,28.6933105" id="Fill-3" fill="#FFFFFF"></path>
                <path d="M37.0632406,46.52167 L37.0632406,49.8144282 L34.3786661,49.8144282 L34.3786661,46.4523348 C29.52152,45.8623184 26.663874,42.8122337 26.2161171,38.1621045 L30.4511236,38.1621045 C30.7959554,40.5908386 32.1739715,42.0135448 34.3786661,42.5308925 L34.3786661,35.6660352 C30.6235395,34.7993444 26.8703797,33.3426373 26.8703797,28.2444957 C26.8703797,24.3257202 29.6618128,21.7923165 34.3786661,21.4109725 L34.3786661,18.9855718 L37.0632406,18.9855718 L37.0632406,21.4463068 C41.0235618,21.9316537 43.9520098,24.3603878 44.5689047,28.557171 L40.1968832,28.557171 C39.954321,26.9611267 38.7519987,25.7484263 37.0632406,25.2977472 L37.0632406,31.9892664 C40.9553821,32.8219562 44.9832273,34.1046585 44.9832273,39.3414706 C44.9832273,43.3989166 41.8502403,46.2089947 37.0632406,46.52167 M35.6,10.4 C22.5658824,10.4 12,21.1456318 12,34.4 C12,47.6543682 22.5658824,58.4 35.6,58.4 C48.633462,58.4 59.2,47.6543682 59.2,34.4 C59.2,21.1456318 48.633462,10.4 35.6,10.4" id="Fill-5" fill="#FFFFFF"></path>
                <g id="Group-9" transform="translate(4.000000, 27.200000)">
                    <mask id="mask-2" fill="white">
                        <use xlink:href="#path-1"></use>
                    </mask>
                    <g id="Clip-8"></g>
                    <path d="M68.3802545,9.58753935 L63.2399116,0.646416774 L58.1008792,9.58753935 L60.835843,9.58753935 C59.5882697,24.4663781 47.1400564,36.1937458 32.0079878,36.1937458 C20.0086126,36.1937458 9.11593448,28.6154748 4.904064,17.336249 L0.608978286,18.9544297 C5.48919162,32.0209587 18.1071116,40.8001974 32.0079878,40.8001974 C49.6705859,40.8001974 64.1762469,27.0097974 65.434304,9.58753935 L68.3802545,9.58753935 Z" id="Fill-7" fill="#FFFFFF" mask="url(#mask-2)"></path>
                </g>
                <g id="Group-12">
                    <mask id="mask-4" fill="white">
                        <use xlink:href="#path-3"></use>
                    </mask>
                    <g id="Clip-11"></g>
                    <path d="M5.13405818,36.5169686 L10.2683127,27.5883686 L7.71951273,27.5883686 C10.6878764,14.4284257 22.2831491,5.04048286 35.9016218,5.04048286 C46.0745673,5.04048286 55.3108582,10.2549114 60.6094036,18.9889971 L64.5222764,16.5969971 C58.3859127,6.48028286 47.6867127,0.440482857 35.9016218,0.440482857 C19.7749309,0.440482857 6.09951273,11.8057686 3.04082182,27.5883686 L-0.000196363636,27.5883686 L5.13405818,36.5169686 Z" id="Fill-10" fill="#FFFFFF" mask="url(#mask-4)"></path>
                </g>
            </g>
        </g>
    </g>
</svg>