<?xml version="1.0" encoding="utf-8"?>
<!-- Generator: Adobe Illustrator 23.0.6, SVG Export Plug-In . SVG Version: 6.00 Build 0)  -->
<svg version="1.1" id="Layer_1" xmlns="http://www.w3.org/2000/svg" xmlns:xlink="http://www.w3.org/1999/xlink" x="0px" y="0px"
	 viewBox="0 0 1018.91 139.42" style="enable-background:new 0 0 1018.91 139.42;" xml:space="preserve">
<style type="text/css">
	.st0{fill:#FFFFFF;}
</style>
<g>
	<path class="st0" d="M0,70.48h20.24c1.77,11.97,9.9,18.18,23.79,18.18c10.04,0,17.29-4.14,17.29-11.08
		c0-9.9-10.19-12.26-21.43-14.63C22.17,59.1,2.52,53.49,2.52,29.4C2.52,10.93,16.55,0,40.64,0c21.42,0,36.05,11.37,39.45,30.73
		H58.81c-1.62-7.69-9.3-12.85-18.91-12.85c-11.23,0-16.99,3.99-16.99,11.67c0,9.61,10.05,11.82,20.98,14.04
		c17.74,3.54,37.39,9.16,37.39,32.51c0,18.77-15.22,31.17-37.98,31.17C17.88,107.27,1.77,93.68,0,70.48z"/>
	<path class="st0" d="M87.45,78.31V33.39h19.95v43.44c0,8.58,2.51,13.6,11.67,13.6c11.08,0,15.37-8.42,15.37-21.13v-35.9h19.95
		v71.96h-19.95V94.57c-4.14,6.8-9.46,12.7-20.98,12.7C96.91,107.27,87.45,96.63,87.45,78.31z"/>
	<path class="st0" d="M161.32,33.48h19.95v7.39c4.28-5.47,12.26-9.31,20.68-9.31c18.76,0,33.39,15.96,33.39,37.83
		c0,22.01-14.63,37.97-33.39,37.97c-8.72,0-16.4-3.54-20.68-8.57v40.63h-19.95V33.48z M213.91,69.39c0-13.01-7.09-21.57-16.99-21.57
		c-10.49,0-16.99,8.57-16.99,21.57c0,13,6.5,21.72,16.99,21.72C206.82,91.11,213.91,82.39,213.91,69.39z"/>
	<path class="st0" d="M239.88,69.39c0-22.46,15.66-37.83,37.23-37.83c20.54,0,35.61,14.63,35.61,35.61c0,2.36-0.15,4.29-0.45,6.36
		h-51.86c1.03,10.19,7.97,16.85,17.29,16.85c6.8,0,12.26-4.43,14.03-11.23h19.8c-3.69,17.73-16.25,28.22-34.43,28.22
		C255.54,107.36,239.88,91.84,239.88,69.39z M292.04,60.08c-0.3-6.64-6.36-12.7-15.66-12.7c-9.31,0-15.96,6.5-15.81,12.7H292.04z"/>
	<path class="st0" d="M319.39,33.48h20.1v10.93c2.95-6.06,8.57-12.85,19.5-12.85c1.33,0,2.66,0.14,4.14,0.44v19.65
		c-1.63-0.29-3.41-0.29-5.32-0.29c-12.85,0-18.32,5.91-18.32,19.79v34.28h-20.1V33.48z"/>
	<path class="st0" d="M380.28,20.48h-30.29V2.01h82.75v18.47h-30.29v84.97h-22.17V20.48z"/>
	<path class="st0" d="M420.86,69.39c0-21.87,15.36-37.83,34.13-37.83c9.3,0,15.96,4.29,19.95,10.19v-8.27h19.95v71.96h-19.95v-9.75
		c-3.99,7.39-11.96,11.67-20.68,11.67C435.49,107.36,420.86,91.4,420.86,69.39z M476.27,69.39c0-13.01-6.36-21.57-16.99-21.57
		c-9.75,0-17,8.57-17,21.57c0,13,7.24,21.72,17,21.72C469.91,91.11,476.27,82.39,476.27,69.39z"/>
	<path class="st0" d="M500.59,80.77h19.35c1.63,7.39,8.13,10.63,15.96,10.63c6.5,0,9.16-2.21,9.16-6.06c0-4.58-3.99-5.91-12.41-7.97
		c-12.26-2.96-28.07-6.8-28.07-23.35c0-14.77,12.41-22.46,27.93-22.46c17.29,0,27.04,9.6,29.56,24.82h-17.14
		c-1.92-7.53-6.5-10.04-13.15-10.04c-5.91,0-9.16,2.07-9.16,6.2c0,5.02,4.58,6.2,14.33,8.28c10.05,2.07,26.9,6.35,26.9,23.34
		c0,12.41-9.16,23.19-29.11,23.19C516.55,107.36,503.69,98.35,500.59,80.77z"/>
	<path class="st0" d="M567.82,69.39c0-21.87,15.37-37.83,34.13-37.83c9.31,0,15.96,4.29,19.95,10.19v-8.27h19.95v71.96H621.9v-9.75
		c-3.98,7.39-11.97,11.67-20.68,11.67C582.45,107.36,567.82,91.4,567.82,69.39z M623.23,69.39c0-13.01-6.35-21.57-16.99-21.57
		c-9.75,0-16.99,8.57-16.99,21.57c0,13,7.24,21.72,16.99,21.72C616.88,91.11,623.23,82.39,623.23,69.39z"/>
	<path class="st0" d="M648.49,80.77h19.35c1.63,7.39,8.13,10.63,15.96,10.63c6.5,0,9.16-2.21,9.16-6.06c0-4.58-3.99-5.91-12.41-7.97
		c-12.26-2.96-28.07-6.8-28.07-23.35c0-14.77,12.41-22.46,27.93-22.46c17.29,0,27.04,9.6,29.56,24.82h-17.14
		c-1.92-7.53-6.5-10.04-13.15-10.04c-5.91,0-9.16,2.07-9.16,6.2c0,5.02,4.58,6.2,14.33,8.28c10.05,2.07,26.9,6.35,26.9,23.34
		c0,12.41-9.16,23.19-29.11,23.19C664.44,107.36,651.59,98.35,648.49,80.77z"/>
	<path class="st0" d="M719.78,84.46h20.4v20.98h-20.4V84.46z"/>
	<path class="st0" d="M746.93,69.24c0-23.06,14.63-37.68,36.2-37.68c19.35,0,31.77,11.82,33.69,29.7h-19.07
		c-1.18-8.42-6.64-13.45-14.77-13.45c-10.64,0-15.52,8.72-15.52,21.43c0,13.14,5.17,21.86,16.25,21.86
		c8.27,0,13.74-4.87,14.92-13.15h18.91c-2.22,18.03-14.63,29.4-33.99,29.4C761.11,107.36,746.93,92,746.93,69.24z"/>
	<path class="st0" d="M821.39,69.53c0-22.01,16.11-37.97,38.28-37.97c22.31,0,38.41,15.96,38.41,37.97
		c0,21.87-16.1,37.83-38.41,37.83C837.5,107.36,821.39,91.4,821.39,69.53z M876.65,69.53c0-13-6.8-21.72-16.99-21.72
		c-10.05,0-16.85,8.72-16.85,21.72c0,13.01,6.8,21.57,16.85,21.57C869.86,91.11,876.65,82.54,876.65,69.53z"/>
	<path class="st0" d="M904.25,33.48h19.95v10.04c3.69-6.8,12.11-11.96,21.57-11.96c12.41,0,19.07,5.76,23.06,16.4
		c4.87-10.79,14.33-16.4,24.38-16.4c17.88,0,25.71,10.35,25.71,31.91v41.97h-19.95V63.47c0-9.6-3.4-14.92-12.56-14.92
		c-10.19,0-14.92,7.69-14.92,17.74v39.16h-19.8V64.96c0-9.61-3.4-16.4-12.56-16.4c-10.19,0-14.92,6.65-14.92,17.44v39.45h-19.95
		V33.48z"/>
</g>
</svg>
