<?xml version="1.0" encoding="UTF-8"?>
<svg width="18px" height="18px" viewBox="0 0 18 18" version="1.1" xmlns="http://www.w3.org/2000/svg" xmlns:xlink="http://www.w3.org/1999/xlink">
    <!-- Generator: Sketch 63.1 (92452) - https://sketch.com -->
    <title>Shape</title>
    <desc>Created with Sketch.</desc>
    <g id="Page-1" stroke="none" stroke-width="1" fill="none" fill-rule="evenodd">
        <path d="M17.006897,-1.13686838e-13 L0.993103,-1.13686838e-13 C0.444628,-1.13686838e-13 0,0.444628 0,0.993103 L0,17.006897 C0,17.555372 0.444628,18 0.993103,18 L9.62069,18 L9.62069,11.038966 L7.277586,11.038966 L7.277586,8.314138 L9.62069,8.314138 L9.62069,6.30931 C9.62069,3.984828 11.042069,2.718621 13.115172,2.718621 C13.813782,2.717097 14.511987,2.752318 15.206897,2.824138 L15.206897,5.254138 L13.77931,5.254138 C12.649655,5.254138 12.42931,5.787931 12.42931,6.576207 L12.42931,8.311034 L15.12931,8.311034 L14.778621,11.035862 L12.413793,11.035862 L12.413793,18 L17.006897,18 C17.555372,18 18,17.555372 18,17.006897 L18,0.993103 C18,0.444628 17.555372,-1.13686838e-13 17.006897,-1.13686838e-13 Z" id="Shape" fill="#F1E9DC" fill-rule="nonzero"></path>
    </g>
</svg>