<?xml version="1.0" encoding="UTF-8"?>
<svg width="1570px" height="1256px" viewBox="0 0 1570 1256" version="1.1" xmlns="http://www.w3.org/2000/svg" xmlns:xlink="http://www.w3.org/1999/xlink">
    <!-- Generator: Sketch 63.1 (92452) - https://sketch.com -->
    <title>Stroke-1</title>
    <desc>Created with Sketch.</desc>
    <g id="Page-1" stroke="none" stroke-width="1" fill="none" fill-rule="evenodd">
        <path d="M1569,871.83455 C1569,390.88323 1178.99241,1 697.887671,1 C313.010459,1 1,312.91097 1,697.66545 C1,1005.4778 250.60179,1255 558.512329,1255 C804.836376,1255 1004.51562,1055.38443 1004.51562,809.13893 C1004.51562,612.14254 844.772224,452.43912 647.712986,452.43912 C490.063404,452.43912 362.264306,580.19747 362.264306,737.79678 C362.264306,863.86746 464.510162,966.08071 590.621058,966.08071 C691.518544,966.08071 773.308652,884.31669 773.308652,783.45138 C773.308652,702.76132 707.874373,637.35886 627.158577,637.35886 C562.590324,637.35886 510.234132,689.67644 510.234132,754.23506 C510.234132,805.8732 552.121278,847.73603 603.77588,847.73603 C645.103947,847.73603 678.604894,814.24576 678.604894,772.93087" id="Stroke-1" stroke="#0074FF" stroke-width="2" transform="translate(785.000000, 628.000000) scale(-1, 1) translate(-785.000000, -628.000000) "></path>
    </g>
</svg>