<?xml version="1.0" encoding="UTF-8"?>
<svg width="1570px" height="1256px" viewBox="0 0 1570 1256" version="1.1" xmlns="http://www.w3.org/2000/svg" xmlns:xlink="http://www.w3.org/1999/xlink">
    <!-- Generator: Sketch 63.1 (92452) - https://sketch.com -->
    <title>Stroke-1</title>
    <desc>Created with Sketch.</desc>
    <g id="Page-1" stroke="none" stroke-width="1" fill="none" fill-rule="evenodd">
        <path d="M1569,871.834551 C1569,390.883228 1178.99241,1 697.887671,1 C313.010459,1 1,312.910966 1,697.665449 C1,1005.4778 250.60179,1255 558.512329,1255 C804.836376,1255 1004.51562,1055.38443 1004.51562,809.138935 C1004.51562,612.142535 844.772224,452.439123 647.712986,452.439123 C490.063404,452.439123 362.264306,580.197469 362.264306,737.796781 C362.264306,863.867463 464.510162,966.080715 590.621058,966.080715 C691.518544,966.080715 773.308652,884.316688 773.308652,783.451376 C773.308652,702.761317 707.874373,637.358863 627.158577,637.358863 C562.590324,637.358863 510.234132,689.676443 510.234132,754.235065 C510.234132,805.873195 552.121278,847.736026 603.77588,847.736026 C645.103947,847.736026 678.604894,814.245762 678.604894,772.930874" id="Stroke-1" stroke="#26A69A" stroke-width="2" transform="translate(785.000000, 628.000000) scale(-1, 1) translate(-785.000000, -628.000000) "></path>
    </g>
</svg>