<?xml version="1.0" encoding="UTF-8"?>
<svg width="13px" height="20px" viewBox="0 0 13 20" version="1.1" xmlns="http://www.w3.org/2000/svg" xmlns:xlink="http://www.w3.org/1999/xlink">
    <!-- Generator: Sketch 63.1 (92452) - https://sketch.com -->
    <title>Group-3</title>
    <desc>Created with Sketch.</desc>
    <defs>
        <polygon id="path-1" points="0 0 12.3809524 0 12.3809524 20 0 20"></polygon>
    </defs>
    <g id="Page-1" stroke="none" stroke-width="1" fill="none" fill-rule="evenodd">
        <g id="Group-3" transform="translate(0.166667, 0.000000)">
            <g id="Fill-1-Clipped">
                <mask id="mask-2" fill="white">
                    <use xlink:href="#path-1"></use>
                </mask>
                <g id="path-32"></g>
                <path d="M9.65509707,13.3858563 C9.65509707,12.0577753 8.56399723,11.5625586 7.15655415,11.2267867 L7.15655415,15.3648471 C8.67765346,15.2297881 9.65509707,14.5113487 9.65509707,13.3858563 M5.3854112,8.05289813 L5.3854112,4.00487714 C3.93061141,4.16244607 3.20321151,4.86025136 3.20321151,5.9613581 C3.20321151,7.19939974 4.13519263,7.71712626 5.3854112,8.05289813 M7.15655415,20 L5.3854112,20 L5.3854112,17.8184206 C2.18030541,17.4357532 0.295506207,15.4567623 0,12.4404427 L2.79404908,12.4404427 C3.02136155,14.0161321 3.93061141,14.9390358 5.3854112,15.2748077 L5.3854112,10.8216095 C2.90770531,10.2588632 0.431893688,9.31344961 0.431893688,6.00637779 C0.431893688,3.46464078 2.27312467,1.82142187 5.3854112,1.57381354 L5.3854112,0 L7.15655415,0 L7.15655415,1.59632339 C9.7687533,1.91146126 11.7009092,3.48715063 12.1081774,6.20896643 L9.22320338,6.20896643 C9.06408462,5.17351341 8.27038529,4.38754455 7.15655415,4.09491653 L7.15655415,8.43556555 C9.72329077,8.97580194 12.3809524,9.80866632 12.3809524,13.2057775 C12.3809524,15.8375539 10.3143032,17.6608516 7.15655415,17.8634403 L7.15655415,20 Z" id="Fill-1" fill="#FFFFFF" fill-rule="nonzero" mask="url(#mask-2)"></path>
            </g>
        </g>
    </g>
</svg>