<?xml version="1.0" encoding="UTF-8"?>
<svg width="40px" height="40px" viewBox="0 0 40 40" version="1.1" xmlns="http://www.w3.org/2000/svg" xmlns:xlink="http://www.w3.org/1999/xlink">
    <!-- Generator: Sketch 63.1 (92452) - https://sketch.com -->
    <title>thumb_up_alt-24px</title>
    <desc>Created with Sketch.</desc>
    <g id="Page-1" stroke="none" stroke-width="1" fill="none" fill-rule="evenodd">
        <g id="thumb_up_alt-24px">
            <path d="M20,0 C8.96,0 0,8.96 0,20 C0,31.04 8.96,40 20,40 C31.04,40 40,31.04 40,20 C40,8.96 31.04,0 20,0 Z" id="Path" fill="#0274FF"></path>
            <path d="M8.125,30.0189394 L10.1680108,30.0189394 C10.7298387,30.0189394 11.1895161,29.5129706 11.1895161,28.8945643 L11.1895161,18.7751888 C11.1895161,18.1567825 10.7298387,17.6508137 10.1680108,17.6508137 L8.125,17.6508137 L8.125,30.0189394 Z M31.6752957,21.7632155 C31.8045161,21.4733375 31.875,21.1602694 31.875,20.8356061 L31.875,19.5833333 C31.875,18.3078704 30.8177419,17.2643098 29.5255376,17.2643098 L23.0645161,17.2643098 L24.1452688,11.87258 C24.2040054,11.6174874 24.1687634,11.3392045 24.0512903,11.1073022 C23.7811022,10.5855219 23.4404301,10.1101221 23.0175269,9.69269781 L22.4771505,9.14772727 L14.9471237,16.5801978 C14.5007258,17.0208123 14.2540323,17.6121633 14.2540323,18.2267045 L14.2540323,27.3172769 C14.2540323,28.801452 15.4875,30.0189394 17.0029032,30.0189394 L26.5299731,30.0189394 C27.3522849,30.0189394 28.1276075,29.58992 28.5505108,28.894213 L31.6752957,21.7632155 Z" id="Shape" fill="#FFFFFF" fill-rule="nonzero"></path>
        </g>
    </g>
</svg>