<?xml version="1.0" encoding="UTF-8"?>
<svg width="40px" height="40px" viewBox="0 0 40 40" version="1.1" xmlns="http://www.w3.org/2000/svg" xmlns:xlink="http://www.w3.org/1999/xlink">
    <!-- Generator: Sketch 63.1 (92452) - https://sketch.com -->
    <title>Group 7</title>
    <desc>Created with Sketch.</desc>
    <defs>
        <polygon id="path-1" points="0 0.131578947 29.8684211 0.131578947 29.8684211 29.9999737 0 29.9999737"></polygon>
    </defs>
    <g id="Page-1" stroke="none" stroke-width="1" fill="none" fill-rule="evenodd">
        <g id="Group-7">
            <path d="M0,20 C0,9 9,0 20,0 C31,0 40,9 40,20 C40,31 31,40 20,40 C9,40 0,31 0,20 Z" id="Shape-Copy-9" fill="#00E478" fill-rule="nonzero" transform="translate(20.000000, 20.000000) scale(-1, 1) rotate(-180.000000) translate(-20.000000, -20.000000) "></path>
            <g id="Group-12" transform="translate(5.000000, 5.000000)">
                <path d="M20.5002937,9 C21.880242,9 23,10.1192364 23,11.5001468 C23,12.8810573 21.880242,14 20.5002937,14 C19.1200517,14 18,12.8810573 18,11.5001468 C18,10.1192364 19.1200517,9 20.5002937,9" id="Fill-1" fill="#002C66"></path>
                <path d="M9.5,9 C10.8808293,9 12,10.1192364 12,11.5001468 C12,12.8810573 10.8808293,14 9.5,14 C8.11917068,14 7,12.8810573 7,11.5001468 C7,10.1192364 8.11917068,9 9.5,9" id="Fill-3" fill="#002C66"></path>
                <path d="M20.5002937,9 C21.880242,9 23,10.1192364 23,11.5001468 C23,12.8810573 21.880242,14 20.5002937,14 C19.1200517,14 18,12.8810573 18,11.5001468 C18,10.1192364 19.1200517,9 20.5002937,9" id="Fill-5" fill="#002C66"></path>
                <path d="M9.5,9 C10.8808293,9 12,10.1192364 12,11.5001468 C12,12.8810573 10.8808293,14 9.5,14 C8.11917068,14 7,12.8810573 7,11.5001468 C7,10.1192364 8.11917068,9 9.5,9" id="Fill-7" fill="#002C66"></path>
                <g id="Group-11">
                    <mask id="mask-2" fill="white">
                        <use xlink:href="#path-1"></use>
                    </mask>
                    <g id="Clip-10"></g>
                    <path d="M14.9342105,23.2797105 C18.4139474,23.2797105 21.3863158,21.1139211 22.5807895,18.0526053 L20.0868421,18.0526053 C19.0557895,19.8291842 17.1452632,21.0394474 14.9342105,21.0394474 C12.7242105,21.0394474 10.8276316,19.8291842 9.78157895,18.0526053 L7.28763158,18.0526053 C8.48263158,21.1139211 11.4544737,23.2797105 14.9342105,23.2797105 M14.9342105,27.0133947 C8.33342105,27.0133947 2.98684211,21.6665526 2.98684211,15.0657632 C2.98684211,8.46497368 8.33342105,3.11839474 14.9342105,3.11839474 C21.535,3.11839474 26.8815789,8.46497368 26.8815789,15.0657632 C26.8815789,21.6665526 21.535,27.0133947 14.9342105,27.0133947 M14.9197368,0.131552632 C6.675,0.131552632 0,6.82207895 0,15.0657632 C0,23.3086579 6.675,29.9999737 14.9197368,29.9999737 C23.1771053,29.9999737 29.8684211,23.3086579 29.8684211,15.0657632 C29.8684211,6.82207895 23.1771053,0.131552632 14.9197368,0.131552632" id="Fill-9" fill="#002C66" mask="url(#mask-2)"></path>
                </g>
            </g>
        </g>
    </g>
</svg>