<?xml version="1.0" encoding="UTF-8"?>
<svg width="110px" height="110px" viewBox="0 0 110 110" version="1.1" xmlns="http://www.w3.org/2000/svg" xmlns:xlink="http://www.w3.org/1999/xlink">
    <title>icon-inversion6</title>
    <g id="Page-1" stroke="none" stroke-width="1" fill="none" fill-rule="evenodd">
        <g id="icon-inversion6" fill-rule="nonzero">
            <path d="M0,55 C0,24.75 24.75,0 55,0 C85.25,0 110,24.75 110,55 C110,85.25 85.25,110 55,110 C24.75,110 0,85.25 0,55 Z" id="Shape" fill="#0274FF" transform="translate(55.000000, 55.000000) scale(-1, 1) rotate(-180.000000) translate(-55.000000, -55.000000) "></path>
            <g id="laptop_chromebook-24px" transform="translate(19.000000, 30.000000)" fill="#FFFFFF">
                <path d="M65.5833333,44.1176471 L65.5833333,0 L6.41666667,0 L6.41666667,44.1176471 L0.5,44.1176471 L0.5,50 L71.5,50 L71.5,44.1176471 L65.5833333,44.1176471 Z M41.9166667,44.1176471 L30.0833333,44.1176471 L30.0833333,41.1764706 L41.9166667,41.1764706 L41.9166667,44.1176471 Z M59.6666667,35.2941176 L12.3333333,35.2941176 L12.3333333,5.88235294 L59.6666667,5.88235294 L59.6666667,35.2941176 Z" id="Shape"></path>
            </g>
        </g>
    </g>
</svg>