<?xml version="1.0" encoding="UTF-8"?>
<svg width="110px" height="110px" viewBox="0 0 110 110" version="1.1" xmlns="http://www.w3.org/2000/svg" xmlns:xlink="http://www.w3.org/1999/xlink">
    <title>icon-inversion8</title>
    <defs>
        <polygon id="path-1" points="0.000255737705 0.000341176471 51.5737705 0.000341176471 51.5737705 57.3367529 0.000255737705 57.3367529"></polygon>
    </defs>
    <g id="Page-1" stroke="none" stroke-width="1" fill="none" fill-rule="evenodd">
        <g id="icon-inversion8">
            <path d="M0,55 C0,24.75 24.75,0 55,0 C85.25,0 110,24.75 110,55 C110,85.25 85.25,110 55,110 C24.75,110 0,85.25 0,55 Z" id="Shape-Copy-6" fill="#0274FF" fill-rule="nonzero" transform="translate(55.000000, 55.000000) scale(-1, 1) rotate(-180.000000) translate(-55.000000, -55.000000) "></path>
            <g id="Group-3" transform="translate(29.000000, 26.000000)">
                <g id="Fill-1-Clipped">
                    <mask id="mask-2" fill="white">
                        <use xlink:href="#path-1"></use>
                    </mask>
                    <g id="path-1"></g>
                    <path d="M20.056059,45.8689588 L8.59645246,34.4020176 L12.6362557,30.3590765 L20.056059,37.7557824 L38.9371738,18.8639882 L42.978682,22.9342235 L20.056059,45.8689588 Z M25.787141,5.73381176 C27.3616328,5.73381176 28.6522557,7.02431176 28.6522557,8.60054706 C28.6522557,10.1767824 27.3616328,11.4672824 25.787141,11.4672824 C24.2117967,11.4672824 22.9211738,10.1767824 22.9211738,8.60054706 C22.9211738,7.02431176 24.2117967,5.73381176 25.787141,5.73381176 L25.787141,5.73381176 Z M45.8429443,5.73381176 L33.8676,5.73381176 C32.6647803,2.40734118 29.5115344,0.000341176471 25.787141,0.000341176471 C22.0627475,0.000341176471 18.9103541,2.40734118 17.7075344,5.73381176 L5.73048525,5.73381176 C2.5780918,5.73381176 0.000255737705,8.31395882 0.000255737705,11.4672824 L0.000255737705,51.6032824 C0.000255737705,54.7557529 2.5780918,57.3367529 5.73048525,57.3367529 L45.8429443,57.3367529 C48.9936328,57.3367529 51.5740262,54.7557529 51.5740262,51.6032824 L51.5740262,11.4672824 C51.5740262,8.31395882 48.9936328,5.73381176 45.8429443,5.73381176 L45.8429443,5.73381176 Z" id="Fill-1" fill="#FFFFFF" fill-rule="nonzero" mask="url(#mask-2)"></path>
                </g>
            </g>
        </g>
    </g>
</svg>