<?xml version="1.0" encoding="UTF-8"?>
<svg width="40px" height="40px" viewBox="0 0 40 40" version="1.1" xmlns="http://www.w3.org/2000/svg" xmlns:xlink="http://www.w3.org/1999/xlink">
    <!-- Generator: Sketch 63.1 (92452) - https://sketch.com -->
    <title>Group 3</title>
    <desc>Created with Sketch.</desc>
    <g id="Page-1" stroke="none" stroke-width="1" fill="none" fill-rule="evenodd">
        <g id="Group-3" fill-rule="nonzero">
            <path d="M0,20 C0,9 9,0 20,0 C31,0 40,9 40,20 C40,31 31,40 20,40 C9,40 0,31 0,20 Z" id="Shape-Copy-10" fill="#00E478" transform="translate(20.000000, 20.000000) scale(-1, 1) rotate(-180.000000) translate(-20.000000, -20.000000) "></path>
            <path d="M25,24.6087942 C25,23.0040798 23.6899166,22.4057117 22,22 L22,27 C23.8263836,26.8368088 25,25.9687217 25,24.6087942 M20,18 L20,13 C18,13.1946247 17,14.0565338 17,15.4165894 C17,16.9457832 18.28125,17.5852642 20,18 M21.6704406,33 L19.5246328,33 L19.5246328,30.2730257 C15.6415239,29.7946915 13.3580171,27.3209529 13,23.5505534 L16.3850979,23.5505534 C16.6604957,25.5201651 17.7620869,26.6737948 19.5246328,27.0935097 L19.5246328,21.5270119 C16.5227968,20.823579 13.5232558,19.641812 13.5232558,15.5079722 C13.5232558,12.330801 15.753978,10.2767773 19.5246328,9.96726693 L19.5246328,8 L21.6704406,8 L21.6704406,9.99540424 C24.8352203,10.3893266 27.1761016,12.3589383 27.6695226,15.761208 L24.1742656,15.761208 C23.9814871,14.4668918 23.0198899,13.4844307 21.6704406,13.1186457 L21.6704406,18.5444569 C24.7801407,19.2197524 28,20.2608329 28,24.5072219 C28,27.7969424 25.4961751,30.0760645 21.6704406,30.3293003 L21.6704406,33 Z" id="Fill-1" fill="#002C66"></path>
        </g>
    </g>
</svg>