<?xml version="1.0" encoding="UTF-8"?>
<svg width="110px" height="110px" viewBox="0 0 110 110" version="1.1" xmlns="http://www.w3.org/2000/svg" xmlns:xlink="http://www.w3.org/1999/xlink">
    <!-- Generator: Sketch 63.1 (92452) - https://sketch.com -->
    <title>Group 8</title>
    <desc>Created with Sketch.</desc>
    <g id="Page-1" stroke="none" stroke-width="1" fill="none" fill-rule="evenodd">
        <g id="Group-8" transform="translate(0.000000, 0.000000)">
            <path d="M0,55 C0,24.75 24.75,0 55,0 C85.25,0 110,24.75 110,55 C110,85.25 85.25,110 55,110 C24.75,110 0,85.25 0,55 Z" id="Shape-Copy-3" fill="#00DF82" fill-rule="nonzero" transform="translate(55.000000, 55.000000) scale(-1, 1) rotate(-180.000000) translate(-55.000000, -55.000000) "></path>
            <path d="M41,73 L69,73 L69,31 L41,31 L41,73 Z M54.5002667,85 C52.0101333,85 50,82.9898667 50,80.4997333 C50,78.0101333 52.0101333,76 54.5002667,76 C56.9898667,76 59,78.0101333 59,80.4997333 C59,82.9898667 56.9898667,85 54.5002667,85 L54.5002667,85 Z M67.3079658,22 L42.6925812,22 C38.4467009,22 35,25.3605333 35,29.4997333 L35,80.4997333 C35,84.6394667 38.4467009,88 42.6925812,88 L67.3079658,88 C71.5532991,88 75,84.6394667 75,80.4997333 L75,29.4997333 C75,25.3605333 71.5532991,22 67.3079658,22 L67.3079658,22 Z" id="Fill-1" fill="#002C66"></path>
        </g>
    </g>
</svg>