<?xml version="1.0" encoding="UTF-8"?>
<svg width="113px" height="100px" viewBox="0 0 113 100" version="1.1" xmlns="http://www.w3.org/2000/svg" xmlns:xlink="http://www.w3.org/1999/xlink">
    <!-- Generator: Sketch 63.1 (92452) - https://sketch.com -->
    <title>Group 2</title>
    <desc>Created with Sketch.</desc>
    <g id="Page-1" stroke="none" stroke-width="1" fill="none" fill-rule="evenodd">
        <g id="Group-2">
            <path d="M0,54 C0,28.7 20.7,8 46,8 C71.3,8 92,28.7 92,54 C92,79.3 71.3,100 46,100 C20.7,100 0,79.3 0,54 Z" id="Shape" fill="#0274FF" fill-rule="nonzero" transform="translate(46.000000, 54.000000) scale(-1, 1) rotate(-180.000000) translate(-46.000000, -54.000000) "></path>
            <g id="Group-7" transform="translate(71.000000, 0.000000)">
                <circle id="Oval" fill="#002C66" cx="21" cy="21" r="21"></circle>
                <path d="M21.156,29.312 C24.66,29.312 26.964,27.464 26.964,24.608 C26.964,23.096 25.956,21.416 23.964,20.888 C25.812,20.264 26.652,18.776 26.652,17.264 C26.652,14.648 24.252,12.848 21.012,12.848 C17.748,12.848 15.084,14.408 14.988,18.08 L17.868,18.08 C17.868,16.28 19.116,15.248 20.82,15.248 C22.548,15.248 23.82,16.184 23.82,17.648 C23.82,19.136 22.572,19.904 20.052,19.904 L20.052,21.92 C22.692,21.92 24.156,22.808 24.156,24.488 C24.156,26 23.124,26.84 21.18,26.84 C19.284,26.84 17.916,25.904 17.844,24.2 L15.012,24.2 C15.3,27.704 17.796,29.312 21.156,29.312 Z" id="3" fill="#FFFFFF" fill-rule="nonzero"></path>
            </g>
            <g id="send-24px" transform="translate(24.000000, 36.000000)" fill="#FFFFFF" fill-rule="nonzero">
                <polygon id="Shape" points="0.0214285714 36 45 18 0.0214285714 0 0 14 32.1428571 18 0 22"></polygon>
            </g>
        </g>
    </g>
</svg>