<?xml version="1.0" encoding="UTF-8"?>
<svg width="110px" height="110px" viewBox="0 0 110 110" version="1.1" xmlns="http://www.w3.org/2000/svg" xmlns:xlink="http://www.w3.org/1999/xlink">
    <title>icon-referidos3</title>
    <defs>
        <polygon id="path-1" points="0 0 42 0 42 40 0 40"></polygon>
    </defs>
    <g id="Page-1" stroke="none" stroke-width="1" fill="none" fill-rule="evenodd">
        <g id="icon-referidos3">
            <path d="M0,55 C0,24.75 24.75,0 55,0 C85.25,0 110,24.75 110,55 C110,85.25 85.25,110 55,110 C24.75,110 0,85.25 0,55 Z" id="Shape" fill="#0274FF" fill-rule="nonzero" transform="translate(55.000000, 55.000000) scale(-1, 1) rotate(-180.000000) translate(-55.000000, -55.000000) "></path>
            <g id="Group-3" transform="translate(34.000000, 35.000000)">
                <g id="Fill-1-Clipped">
                    <mask id="mask-2" fill="white">
                        <use xlink:href="#path-1"></use>
                    </mask>
                    <g id="path-1"></g>
                    <path d="M28.7371342,23.3333023 C26.9020696,23.3333023 25.4211403,21.84456 25.4211403,20.000186 C25.4211403,18.15544 26.9020696,16.6666977 28.7371342,16.6666977 C30.5721989,16.6666977 32.0531282,18.15544 32.0531282,20.000186 C32.0531282,21.84456 30.5721989,23.3333023 28.7371342,23.3333023 L28.7371342,23.3333023 Z M19.8948537,28.8891162 L42,28.8891162 L42,11.1112558 L19.8948537,11.1112558 L19.8948537,28.8891162 Z M39.7897074,33.3333953 L39.7897074,35.5553489 C39.7897074,37.9990142 37.7995929,40 35.3687521,40 L4.42095525,40 C1.96754156,40 0,37.9990142 0,35.5553489 L0,4.44465111 C0,1.9998698 1.96754156,0 4.42095525,0 L35.3687521,0 C37.7995929,0 39.7897074,1.9998698 39.7897074,4.44465111 L39.7897074,6.66660467 L19.8948537,6.66660467 C17.44144,6.66660467 15.4738984,8.66647447 15.4738984,11.1112558 L15.4738984,28.8891162 C15.4738984,31.3324095 17.44144,33.3333953 19.8948537,33.3333953 L39.7897074,33.3333953 Z" id="Fill-1" fill="#FFFFFF" fill-rule="nonzero" mask="url(#mask-2)"></path>
                </g>
            </g>
        </g>
    </g>
</svg>