<?xml version="1.0" encoding="UTF-8"?>
<svg width="52px" height="17px" viewBox="0 0 52 17" version="1.1" xmlns="http://www.w3.org/2000/svg" xmlns:xlink="http://www.w3.org/1999/xlink">
    <!-- Generator: Sketch 63.1 (92452) - https://sketch.com -->
    <title>MXN</title>
    <desc>Created with Sketch.</desc>
    <g id="Page-1" stroke="none" stroke-width="1" fill="none" fill-rule="evenodd">
        <path d="M3.04,17 L3.04,4.88 L7.792,16.784 L10.36,16.784 L15.112,5.12 L15.112,17 L18.136,17 L18.136,0.2 L14.056,0.2 L9.184,12.176 L4.288,0.2 L0.016,0.2 L0.016,17 L3.04,17 Z M23.728,17 L27.832,10.952 L31.888,17 L35.656,17 L29.896,8.432 L35.656,0.2 L32.272,0.2 L28.312,6.056 L24.376,0.2 L20.608,0.2 L26.2,8.528 L20.224,17 L23.728,17 Z M40.792,17 L40.792,5.096 L48.04,17 L51.52,17 L51.52,0.2 L48.52,0.2 L48.52,12.176 L41.248,0.2 L37.768,0.2 L37.768,17 L40.792,17 Z" id="MXN" fill="#00DF82" fill-rule="nonzero"></path>
    </g>
</svg>