<?xml version="1.0" encoding="UTF-8"?>
<svg width="110px" height="110px" viewBox="0 0 110 110" version="1.1" xmlns="http://www.w3.org/2000/svg" xmlns:xlink="http://www.w3.org/1999/xlink">
    <title>icon-referidos1</title>
    <g id="Page-1" stroke="none" stroke-width="1" fill="none" fill-rule="evenodd">
        <g id="icon-referidos1" fill-rule="nonzero">
            <path d="M0,55 C0,24.75 24.75,0 55,0 C85.25,0 110,24.75 110,55 C110,85.25 85.25,110 55,110 C24.75,110 0,85.25 0,55 Z" id="Shape" fill="#0274FF" transform="translate(55.000000, 55.000000) scale(-1, 1) rotate(-180.000000) translate(-55.000000, -55.000000) "></path>
            <path d="M55.5,42 C58.5241081,42 61,39.3003243 61,36 C61,32.6996757 58.5241081,30 55.5,30 C52.4747027,30 50,32.6996757 50,36 C50,39.3003243 52.4747027,42 55.5,42 L55.5,42 Z M75.7777778,42 C69.3992312,43.6630135 61.9179099,44.375 55,44.375 C48.0820901,44.375 40.6020901,43.6630135 34.2222222,42 L33,46.75 C37.5464024,47.9375 42.7777778,48.7213784 47.6666667,49.125 L47.6666667,80 L52.5555556,80 L52.5555556,65.75 L57.4444444,65.75 L57.4444444,80 L62.3333333,80 L62.3333333,49.125 C67.2222222,48.7213784 72.4549189,47.9375 77,46.75 L75.7777778,42 Z" id="Fill-1" fill="#FFFFFF"></path>
        </g>
    </g>
</svg>