<?xml version="1.0" encoding="UTF-8"?>
<svg width="29px" height="14px" viewBox="0 0 29 14" version="1.1" xmlns="http://www.w3.org/2000/svg" xmlns:xlink="http://www.w3.org/1999/xlink">
    <!-- Generator: Sketch 63.1 (92452) - https://sketch.com -->
    <title>group-24px</title>
    <desc>Created with Sketch.</desc>
    <g id="Page-1" stroke="none" stroke-width="1" fill="none" fill-rule="evenodd">
        <g id="group-24px" transform="translate(0.333333, 0.000000)" fill="#FFFFFF">
            <path d="M21.77115,5.80434799 C23.3797005,5.80434799 24.668479,4.50804361 24.668479,2.902174 C24.668479,1.29630438 23.3797005,0 21.77115,0 C20.1625995,0 18.864131,1.29630438 18.864131,2.902174 C18.864131,4.50804361 20.1625995,5.80434799 21.77115,5.80434799 Z M6.67015516,5.80434799 C5.06160463,5.80434799 3.77282619,4.50804361 3.77282619,2.902174 C3.77282619,1.29630438 5.06160463,0 6.67015516,0 C8.27870569,0 9.57717419,1.29630438 9.57717419,2.902174 C9.57717419,4.50804361 8.27870569,5.80434799 6.67015516,5.80434799 Z M21.814007,7.54565239 C21.5394475,7.54565239 21.2270177,7.56500022 20.8956528,7.59402196 C20.9145879,7.60369587 20.9240555,7.6230437 20.933523,7.63271761 C22.0128259,8.43565241 22.7607638,9.50945679 22.7607638,10.9315221 L22.7607638,12.382609 C22.7607638,12.721196 22.6944909,13.0501091 22.5903476,13.3500004 L27.4945483,13.3500004 C28.0152646,13.3500004 28.4413052,12.9146743 28.4413052,12.382609 L28.4413052,10.9315221 C28.4413052,8.67750025 24.0199505,7.54565239 21.814007,7.54565239 Z M6.62729821,7.54565239 C6.90185771,7.54565239 7.21428748,7.56500022 7.54565239,7.59402196 C7.52671725,7.60369587 7.51724968,7.6230437 7.50778211,7.63271761 C6.42847926,8.43565241 5.68054132,9.50945679 5.68054132,10.9315221 L5.68054132,12.382609 C5.68054132,12.721196 5.7468143,13.0501091 5.85095756,13.3500004 L0.946756887,13.3500004 C0.426040599,13.3500004 0,12.9146743 0,12.382609 L0,10.9315221 C0,8.67750025 4.42135466,7.54565239 6.62729821,7.54565239 Z" id="Shape" fill-rule="nonzero"></path>
            <path d="M13.907019,5.80434799 C15.5155696,5.80434799 16.804348,4.50804361 16.804348,2.902174 C16.804348,1.29630438 15.5155696,0 13.907019,0 C12.2984685,0 11,1.29630438 11,2.902174 C11,4.50804361 12.2984685,5.80434799 13.907019,5.80434799 Z" id="Path"></path>
            <path d="M13.6750002,7 C11.4531787,7 7,8.13184786 7,10.3858697 L7,11.8369567 C7,12.3690219 7.42910716,12.804348 7.95357146,12.804348 L19.3964289,12.804348 C19.9208932,12.804348 20.3500004,12.3690219 20.3500004,11.8369567 L20.3500004,10.3858697 C20.3500004,8.13184786 15.8968217,7 13.6750002,7 Z" id="Path"></path>
        </g>
    </g>
</svg>