<?xml version="1.0" encoding="UTF-8"?>
<svg width="135px" height="120px" viewBox="0 0 135 120" version="1.1" xmlns="http://www.w3.org/2000/svg" xmlns:xlink="http://www.w3.org/1999/xlink">
    <!-- Generator: Sketch 63.1 (92452) - https://sketch.com -->
    <title>icon-inversion6 copy 7</title>
    <desc>Created with Sketch.</desc>
    <defs>
        <polygon id="path-1" points="0 0 42 0 42 40 0 40"></polygon>
    </defs>
    <g id="Page-1" stroke="none" stroke-width="1" fill="none" fill-rule="evenodd">
        <g id="icon-inversion6-copy-7">
            <g id="icon-inversion6-copy-3">
                <path d="M0,65 C0,34.75 24.75,10 55,10 C85.25,10 110,34.75 110,65 C110,95.25 85.25,120 55,120 C24.75,120 0,95.25 0,65 Z" id="Shape" fill="#0274FF" fill-rule="nonzero" transform="translate(55.000000, 65.000000) scale(-1, 1) rotate(-180.000000) translate(-55.000000, -65.000000) "></path>
                <g id="Group-7" transform="translate(85.000000, 0.000000)" fill-rule="nonzero">
                    <circle id="Oval" fill="#002C66" cx="25" cy="25" r="25"></circle>
                    <path d="M25.168,33.464 C28.672,33.464 30.976,31.616 30.976,28.76 C30.976,27.248 29.968,25.568 27.976,25.04 C29.824,24.416 30.664,22.928 30.664,21.416 C30.664,18.8 28.264,17 25.024,17 C21.76,17 19.096,18.56 19,22.232 L21.88,22.232 C21.88,20.432 23.128,19.4 24.832,19.4 C26.56,19.4 27.832,20.336 27.832,21.8 C27.832,23.288 26.584,24.056 24.064,24.056 L24.064,26.072 C26.704,26.072 28.168,26.96 28.168,28.64 C28.168,30.152 27.136,30.992 25.192,30.992 C23.296,30.992 21.928,30.056 21.856,28.352 L19.024,28.352 C19.312,31.856 21.808,33.464 25.168,33.464 Z" id="3" fill="#FFFFFF"></path>
                </g>
                <g id="Group-3" transform="translate(34.000000, 45.000000)">
                    <mask id="mask-2" fill="white">
                        <use xlink:href="#path-1"></use>
                    </mask>
                    <g id="Clip-2"></g>
                    <path d="M28.7371342,23.3333023 C26.9020696,23.3333023 25.4211403,21.84456 25.4211403,20.000186 C25.4211403,18.15544 26.9020696,16.6666977 28.7371342,16.6666977 C30.5721989,16.6666977 32.0531282,18.15544 32.0531282,20.000186 C32.0531282,21.84456 30.5721989,23.3333023 28.7371342,23.3333023 L28.7371342,23.3333023 Z M19.8948537,28.8891162 L42,28.8891162 L42,11.1112558 L19.8948537,11.1112558 L19.8948537,28.8891162 Z M39.7897074,33.3333953 L39.7897074,35.5553489 C39.7897074,37.9990142 37.7995929,40 35.3687521,40 L4.42095525,40 C1.96754156,40 0,37.9990142 0,35.5553489 L0,4.44465111 C0,1.9998698 1.96754156,0 4.42095525,0 L35.3687521,0 C37.7995929,0 39.7897074,1.9998698 39.7897074,4.44465111 L39.7897074,6.66660467 L19.8948537,6.66660467 C17.44144,6.66660467 15.4738984,8.66647447 15.4738984,11.1112558 L15.4738984,28.8891162 C15.4738984,31.3324095 17.44144,33.3333953 19.8948537,33.3333953 L39.7897074,33.3333953 Z" id="Fill-1" fill="#FFFFFF" mask="url(#mask-2)"></path>
                </g>
            </g>
        </g>
    </g>
</svg>