<?xml version="1.0" encoding="UTF-8"?>
<svg width="21px" height="22px" viewBox="0 0 21 22" version="1.1" xmlns="http://www.w3.org/2000/svg" xmlns:xlink="http://www.w3.org/1999/xlink">
    <!-- Generator: Sketch 63.1 (92452) - https://sketch.com -->
    <title>transform-24px</title>
    <desc>Created with Sketch.</desc>
    <g id="Page-1" stroke="none" stroke-width="1" fill="none" fill-rule="evenodd">
        <g id="transform-24px" transform="translate(0.666667, 0.000000)" fill="#FFFFFF" fill-rule="nonzero">
            <path d="M19,14.8 L7,14.8 C6.45,14.8 6,14.35 6,13.8 L6,2.8 L6.79,2.8 C7.24,2.8 7.46,2.26 7.14,1.95 L5.35,0.15 C5.15,-0.05 4.84,-0.05 4.64,0.15 L2.85,1.95 C2.54,2.26 2.76,2.8 3.21,2.8 L4,2.8 L4,4.8 L1,4.8 C0.45,4.8 0,5.25 0,5.8 C0,6.35 0.45,6.8 1,6.8 L4,6.8 L4,14.8 C4,15.9 4.9,16.8 6,16.8 L14,16.8 L14,18.8 L13.21,18.8 C12.76,18.8 12.54,19.34 12.86,19.65 L14.65,21.44 C14.85,21.64 15.16,21.64 15.36,21.44 L17.15,19.65 C17.47,19.34 17.24,18.8 16.8,18.8 L16,18.8 L16,16.8 L19,16.8 C19.55,16.8 20,16.35 20,15.8 C20,15.25 19.55,14.8 19,14.8 Z M14,12.8 L16,12.8 L16,6.8 C16,5.7 15.1,4.8 14,4.8 L8,4.8 L8,6.8 L13,6.8 C13.55,6.8 14,7.25 14,7.8 L14,12.8 Z" id="Shape"></path>
        </g>
    </g>
</svg>