<?xml version="1.0" encoding="UTF-8"?>
<svg width="135px" height="120px" viewBox="0 0 135 120" version="1.1" xmlns="http://www.w3.org/2000/svg" xmlns:xlink="http://www.w3.org/1999/xlink">
    <!-- Generator: Sketch 63.1 (92452) - https://sketch.com -->
    <title>Group</title>
    <desc>Created with Sketch.</desc>
    <g id="Page-1" stroke="none" stroke-width="1" fill="none" fill-rule="evenodd">
        <g id="Group">
            <g id="icon-inversion6-copy-4" fill-rule="nonzero">
                <path d="M0,65 C0,34.75 24.75,10 55,10 C85.25,10 110,34.75 110,65 C110,95.25 85.25,120 55,120 C24.75,120 0,95.25 0,65 Z" id="Shape" fill="#0274FF" transform="translate(55.000000, 65.000000) scale(-1, 1) rotate(-180.000000) translate(-55.000000, -65.000000) "></path>
                <g id="Group-7" transform="translate(85.000000, 0.000000)">
                    <circle id="Oval" fill="#002C66" cx="25" cy="25" r="25"></circle>
                    <path d="M28.56,32.96 L28.56,29.24 L31.2,29.24 L31.2,26.888 L28.56,26.888 L28.56,17 L25.824,17 L18,27.224 L18,29.24 L25.728,29.24 L25.728,32.96 L28.56,32.96 Z M25.728,26.888 L21.024,26.888 L25.728,20.672 L25.728,26.888 Z" id="4" fill="#FFFFFF"></path>
                </g>
            </g>
            <path d="M73,70 L36,70 L36,56.3636364 L47.74772,56.3636364 L42.9377619,62.7956921 L46.6844627,65.4545455 L52.1876813,58.0905923 L54.5001611,55 L56.812641,58.0905923 L62.3161819,65.4545455 L66.0625604,62.7956921 L61.2526023,56.3636364 L73,56.3636364 L73,70 Z M36,82 L73,82 L73,77 L36,77 L36,82 Z M48.4996516,47 C49.8745645,47 51,48.1253571 51,49.5001742 C51,50.8742945 49.8745645,52 48.4996516,52 C47.1254355,52 46,50.8742945 46,49.5001742 C46,48.1253571 47.1254355,47 48.4996516,47 L48.4996516,47 Z M61.5001742,47 C62.8742945,47 64,48.1253571 64,49.5001742 C64,50.8742945 62.8742945,52 61.5001742,52 C60.1257055,52 59,50.8742945 59,49.5001742 C59,48.1253571 60.1257055,47 61.5001742,47 L61.5001742,47 Z M73.4,52.0528806 L68.3864808,52.0528806 C68.6381185,51.3510702 68.8,50.5817599 68.8,49.7897393 C68.8,46.0324516 65.7181603,43 61.9,43 C59.4852404,43 57.392,44.222254 56.1498397,46.0554773 L55,47.5720185 L53.8498397,46.0324516 C52.6076794,44.222254 50.514439,43 48.0996794,43 C44.2815192,43 41.2,46.0324516 41.2,49.7897393 C41.2,50.5817599 41.3605993,51.3510702 41.6141603,52.0528806 L36.5996794,52.0528806 C34.0470801,52.0528806 32.022439,54.0671552 32.022439,56.5788478 L32,81.473402 C32,83.9841483 34.0470801,86 36.5996794,86 L73.4,86 C75.9513171,86 78,83.9841483 78,81.473402 L78,56.5788478 C78,54.0671552 75.9513171,52.0528806 73.4,52.0528806 L73.4,52.0528806 Z" id="Fill-1" fill="#FFFFFF"></path>
        </g>
    </g>
</svg>