<?xml version="1.0" encoding="UTF-8"?>
<svg width="15px" height="17px" viewBox="0 0 15 17" version="1.1" xmlns="http://www.w3.org/2000/svg" xmlns:xlink="http://www.w3.org/1999/xlink">
    <!-- Generator: Sketch 63.1 (92452) - https://sketch.com -->
    <title>flag-24px</title>
    <desc>Created with Sketch.</desc>
    <g id="Page-1" stroke="none" stroke-width="1" fill="none" fill-rule="evenodd">
        <g id="flag-24px" fill="#FFFFFF" fill-rule="nonzero">
            <path d="M9.4,2 L9.16,0.8 C9.07,0.34 8.66,0 8.18,0 L1,0 C0.45,0 0,0.45 0,1 L0,16 C0,16.55 0.45,17 1,17 C1.55,17 2,16.55 2,16 L2,10 L7.6,10 L7.84,11.2 C7.93,11.67 8.34,12 8.82,12 L14,12 C14.55,12 15,11.55 15,11 L15,3 C15,2.45 14.55,2 14,2 L9.4,2 Z" id="Shape"></path>
        </g>
    </g>
</svg>