<?xml version="1.0" encoding="UTF-8"?>
<svg width="110px" height="110px" viewBox="0 0 110 110" version="1.1" xmlns="http://www.w3.org/2000/svg" xmlns:xlink="http://www.w3.org/1999/xlink">
    <title>icon-inversion7</title>
    <g id="Page-1" stroke="none" stroke-width="1" fill="none" fill-rule="evenodd">
        <g id="icon-inversion7" fill-rule="nonzero">
            <path d="M0,55 C0,24.75 24.75,0 55,0 C85.25,0 110,24.75 110,55 C110,85.25 85.25,110 55,110 C24.75,110 0,85.25 0,55 Z" id="Shape-Copy-5" fill="#0274FF" transform="translate(55.000000, 55.000000) scale(-1, 1) rotate(-180.000000) translate(-55.000000, -55.000000) "></path>
            <path d="M58,48 L87,48 L87,41 L58,41 L58,48 Z M58,59 L87,59 L87,52 L58,52 L58,59 Z M58,70 L87,70 L87,63 L58,63 L58,70 Z M53,70 L23,70 L23,67.5604566 C23,62.6820146 33.0002203,60 38,60 C42.9997797,60 53,62.6820146 53,67.5604566 L53,70 Z M38.5,41 C42.6505111,41 46,44.3494889 46,48.5 C46,52.6505111 42.6505111,56 38.5,56 C34.3494889,56 31,52.6505111 31,48.5 C31,44.3494889 34.3494889,41 38.5,41 L38.5,41 Z M89.0043601,33 L20.9956399,33 C18.2234395,33 16,35.2497356 16,38.0004406 L16,73.0002203 C16,75.7489425 18.2234395,78 20.9956399,78 L89.0043601,78 C91.7508064,78 94,75.7489425 94,73.0002203 L94,38.0004406 C94,35.2497356 91.7508064,33 89.0043601,33 L89.0043601,33 Z" id="Fill-1" fill="#FFFFFF"></path>
        </g>
    </g>
</svg>