<?xml version="1.0" encoding="UTF-8"?>
<svg width="40px" height="40px" viewBox="0 0 40 40" version="1.1" xmlns="http://www.w3.org/2000/svg" xmlns:xlink="http://www.w3.org/1999/xlink">
    <!-- Generator: Sketch 63.1 (92452) - https://sketch.com -->
    <title>calendar_today-24px</title>
    <desc>Created with Sketch.</desc>
    <g id="Page-1" stroke="none" stroke-width="1" fill="none" fill-rule="evenodd">
        <g id="calendar_today-24px">
            <path d="M20,0 C8.96,0 0,8.96 0,20 C0,31.04 8.96,40 20,40 C31.04,40 40,31.04 40,20 C40,8.96 31.04,0 20,0 Z" id="Path" fill="#0274FF"></path>
            <path d="M29.2436495,10.5176283 L28.155478,10.5176283 L28.155478,8.37871622 L25.979135,8.37871622 L25.979135,10.5176283 L15.09742,10.5176283 L15.09742,8.37871622 L12.921077,8.37871622 L12.921077,10.5176283 L11.8329055,10.5176283 C10.6359169,10.5176283 9.6565625,11.4801387 9.6565625,12.6565403 L9.6565625,29.7678366 C9.6565625,30.9442383 10.6359169,31.9067487 11.8329055,31.9067487 L29.2436495,31.9067487 C30.4406382,31.9067487 31.4199925,30.9442383 31.4199925,29.7678366 L31.4199925,12.6565403 C31.4199925,11.4801387 30.4406382,10.5176283 29.2436495,10.5176283 Z M29.2436495,29.7678366 L11.8329055,29.7678366 L11.8329055,15.8649084 L29.2436495,15.8649084 L29.2436495,29.7678366 Z" id="Shape" fill="#FFFFFF" fill-rule="nonzero"></path>
        </g>
    </g>
</svg>