<?xml version="1.0" encoding="UTF-8"?>
<svg width="135px" height="120px" viewBox="0 0 135 120" version="1.1" xmlns="http://www.w3.org/2000/svg" xmlns:xlink="http://www.w3.org/1999/xlink">
    <!-- Generator: Sketch 63.1 (92452) - https://sketch.com -->
    <title>icon-inversion6 copy 6</title>
    <desc>Created with Sketch.</desc>
    <defs>
        <polygon id="path-1" points="0 0 42 0 42 46.7727273 0 46.7727273"></polygon>
    </defs>
    <g id="Page-1" stroke="none" stroke-width="1" fill="none" fill-rule="evenodd">
        <g id="icon-inversion6-copy-6">
            <g id="icon-inversion6-copy-2">
                <path d="M0,65 C0,34.75 24.75,10 55,10 C85.25,10 110,34.75 110,65 C110,95.25 85.25,120 55,120 C24.75,120 0,95.25 0,65 Z" id="Shape" fill="#0274FF" fill-rule="nonzero" transform="translate(55.000000, 65.000000) scale(-1, 1) rotate(-180.000000) translate(-55.000000, -65.000000) "></path>
                <g id="Group-7" transform="translate(85.000000, 0.000000)" fill-rule="nonzero">
                    <circle id="Oval" fill="#002C66" cx="25" cy="25" r="25"></circle>
                    <path d="M30.736,33.152 L30.736,30.776 L22.984,30.776 C23.752,27.8 30.664,27.08 30.664,21.896 C30.664,18.872 28.528,17 24.976,17 C21.256,17 19,19.112 19,22.544 L21.904,22.544 C21.904,20.504 22.96,19.4 24.88,19.4 C26.728,19.4 27.688,20.432 27.688,21.968 C27.688,26.312 19.552,25.472 19.552,33.152 L30.736,33.152 Z" id="2" fill="#FFFFFF"></path>
                </g>
                <g id="Group-3" transform="translate(34.000000, 41.000000)">
                    <mask id="mask-2" fill="white">
                        <use xlink:href="#path-1"></use>
                    </mask>
                    <g id="Clip-2"></g>
                    <path d="M16.3332878,37.418305 L6.99986341,28.0634721 L10.2904098,24.7658611 L16.3332878,30.799674 L31.7095902,15.3884404 L34.9999317,18.7090498 L16.3332878,37.418305 Z M21,4.6773138 C22.2829463,4.6773138 23.3333561,5.73010982 23.3333561,7.01597069 C23.3333561,8.30183157 22.2829463,9.35462759 21,9.35462759 C19.7172585,9.35462759 18.6666439,8.30183157 18.6666439,7.01597069 C18.6666439,5.73010982 19.7172585,4.6773138 21,4.6773138 L21,4.6773138 Z M37.3332878,4.6773138 L27.5806829,4.6773138 C26.6009561,1.96411039 24.0328098,0 21,0 C17.9671902,0 15.4000683,1.96411039 14.4203415,4.6773138 L4.6667122,4.6773138 C2.09959024,4.6773138 0,6.78187913 0,9.35462759 L0,42.0954135 C0,44.6671352 2.09959024,46.7727273 4.6667122,46.7727273 L37.3332878,46.7727273 C39.8989756,46.7727273 42,44.6671352 42,42.0954135 L42,9.35462759 C42,6.78187913 39.8989756,4.6773138 37.3332878,4.6773138 L37.3332878,4.6773138 Z" id="Fill-1" fill="#FFFFFF" mask="url(#mask-2)"></path>
                </g>
            </g>
        </g>
    </g>
</svg>