<?xml version="1.0" encoding="UTF-8"?>
<svg width="253px" height="35px" viewBox="0 0 253 35" version="1.1" xmlns="http://www.w3.org/2000/svg" xmlns:xlink="http://www.w3.org/1999/xlink">
    <!-- Generator: Sketch 57.1 (83088) - https://sketch.com -->
    <title>Group-27</title>
    <desc>Created with Sketch.</desc>
    <defs>
        <polygon id="path-1" points="0 0.1296 20.1548 0.1296 20.1548 26.9756 0 26.9756"></polygon>
        <polygon id="path-3" points="0 34.8709 252.357 34.8709 252.357 -0.0001 0 -0.0001"></polygon>
        <polygon id="path-5" points="0 34.8709 252.357 34.8709 252.357 -0.0001 0 -0.0001"></polygon>
        <polygon id="path-7" points="0 34.8709 252.357 34.8709 252.357 -0.0001 0 -0.0001"></polygon>
        <polygon id="path-9" points="0 34.8709 252.357 34.8709 252.357 -0.0001 0 -0.0001"></polygon>
    </defs>
    <g id="Symbols" stroke="none" stroke-width="1" fill="none" fill-rule="evenodd">
        <g id="Header" transform="translate(-156.000000, -32.000000)">
            <g id="Group-27">
                <g transform="translate(156.000000, 32.000000)">
                    <g id="Group-3">
                        <g id="Fill-1-Clipped">
                            <mask id="mask-2" fill="white">
                                <use xlink:href="#path-1"></use>
                            </mask>
                            <g id="path-16"></g>
                            <path d="M-0.0002,18.0266 L4.5478,18.0266 C4.9928,21.2816 7.2498,22.8716 10.7618,22.8716 C13.7578,22.8716 15.7158,21.6506 15.7158,19.5806 C15.7158,16.8806 12.9808,16.2896 9.9488,15.6236 C5.5838,14.6996 0.7028,13.4416 0.7028,7.4506 C0.7028,2.9016 4.2158,0.1296 10.0958,0.1296 C15.1248,0.1296 18.9708,2.7906 19.7098,7.7826 L15.0148,7.7826 C14.6818,5.6016 12.6098,4.0856 9.9848,4.0856 C6.8048,4.0856 5.2148,5.2686 5.2148,7.3766 C5.2148,10.1136 7.9508,10.7056 10.9468,11.2976 C15.3098,12.1836 20.1548,13.4046 20.1548,19.2836 C20.1548,23.9076 16.3458,26.9756 10.6138,26.9756 C4.2908,26.9756 0.5558,23.5366 -0.0002,18.0266" id="Fill-1" fill="#002C66" fill-rule="nonzero" mask="url(#mask-2)"></path>
                        </g>
                    </g>
                    <path d="M21,18.835632 L21,8 L25.2428146,8 L25.2428146,18.620477 C25.2428146,21.1049813 25.9982378,22.4007788 28.477426,22.4007788 C31.4991189,22.4007788 32.7562132,20.1333766 32.7562132,16.7483368 L32.7562132,8 L37,8 L37,25.5326951 L32.7562132,25.5326951 L32.7562132,22.976148 C31.6780094,24.6691546 30.2041077,26 27.5440846,26 C23.1573798,26 21,23.408405 21,18.835632" id="Fill-4" fill="#002C66" fill-rule="nonzero"></path>
                    <path d="M53.4090984,17.4691042 C53.4090984,13.8803067 51.5496798,11.5867971 48.7078338,11.5867971 C45.8295287,11.5867971 44.080473,13.8803067 44.080473,17.4691042 C44.080473,21.0559013 45.8295287,23.3874194 48.7078338,23.3874194 C51.5496798,23.3874194 53.4090984,21.0559013 53.4090984,17.4691042 L53.4090984,17.4691042 Z M40,8.48010669 L44.2982427,8.48010669 L44.2982427,10.6265837 C45.3191,9.11024672 47.4692068,8 49.6912465,8 C54.4279849,8 58,11.9938875 58,17.4691042 C58,22.980329 54.4279849,26.9742165 49.6912465,26.9742165 C47.4317622,26.9742165 45.3191,25.9389864 44.2982427,24.5326739 L44.2982427,35 L40,35 L40,8.48010669 Z" id="Fill-6" fill="#002C66" fill-rule="nonzero"></path>
                    <path d="M72.4821192,15.2965208 C72.260596,13.1841856 70.6453642,11.5556141 68.036755,11.5556141 C65.4291391,11.5556141 63.739404,13.2212441 63.5923841,15.2965208 L72.4821192,15.2965208 Z M59,17.4819715 C59,11.8510807 62.8572848,8 68.1460265,8 C73.2519868,8 77,11.6657881 77,16.9250923 C77,17.4819715 76.963245,17.9246705 76.8897351,18.3693727 L63.5178808,18.3693727 C63.739404,21.3320506 65.5751656,23.2600949 68.2950331,23.2600949 C70.2778146,23.2600949 71.8205298,22.1483395 72.3718543,20.1471798 L76.7049669,20.1471798 C75.6778146,24.5551397 72.5178808,27 68.1837748,27 C62.8572848,27 59,23.1108593 59,17.4819715 L59,17.4819715 Z" id="Fill-8" fill="#002C66" fill-rule="nonzero"></path>
                    <path d="M79,8.46730488 L83.1843291,8.46730488 L83.1843291,11.1319163 C83.9295099,9.65601168 85.3134171,8 88.0083437,8 C88.3277069,8 88.6470701,8.03504787 89,8.1070907 L89,12.2476067 C88.6106263,12.1755638 88.1848087,12.1755638 87.7244653,12.1755638 C84.7456603,12.1755638 83.1843291,13.8666234 83.1843291,17.3967224 L83.1843291,26 L79,26 L79,8.46730488 Z" id="Fill-10" fill="#002C66" fill-rule="nonzero"></path>
                    <polygon id="Fill-12" fill="#002C66" fill-rule="nonzero" points="96.1006374 4.04975663 88 4.04975663 88 0 109 0 109 4.04975663 100.937898 4.04975663 100.937898 26 96.1006374 26"></polygon>
                    <path d="M119.651076,19.8887717 L119.651076,18.2221402 C118.496016,18.7028993 117.702889,18.8150764 116.080538,19.0364259 C113.806515,19.2958355 112.364641,19.8146547 112.364641,21.3330522 C112.364641,22.7412757 113.373367,23.5185029 114.961574,23.5185029 C117.126335,23.5185029 119.651076,22.0371639 119.651076,19.8887717 M108.071216,21.5924618 C108.071216,17.7413811 111.641754,16.7037428 115.93518,16.1488666 C118.676494,15.7782815 119.578885,15.6300474 119.578885,14.2218239 C119.578885,12.556194 118.280418,11.5916711 116.152729,11.5916711 C113.553845,11.5916711 112.255379,12.556194 111.931494,14.6665261 L108,14.6665261 C108.539483,9.92604112 111.823207,8 116.007371,8 C121.45488,8 123.691832,11.1489721 123.691832,15.9635741 L123.691832,22.259515 C123.691832,23.2230364 124.124004,23.5555614 124.845916,23.5555614 C125.170777,23.5555614 125.567828,23.4814444 126,23.3702688 L126,26.5192409 C125.603924,26.7405904 124.773725,27 123.584521,27 C121.996315,27 120.55249,26.2217712 120.22763,24.2596732 C118.785757,25.9633632 116.801474,27 114.240637,27 C110.740339,27 108.071216,25.112019 108.071216,21.5924618" id="Fill-14" fill="#002C66" fill-rule="nonzero"></path>
                    <path d="M127,20.4807064 L131.446785,20.4807064 C131.864025,22.5559831 133.688162,23.4433843 135.740446,23.4433843 C137.715653,23.4433843 138.743336,22.7412757 138.743336,21.5564048 C138.743336,20.1111228 137.412486,19.7785978 135.056009,19.2597786 C132.016122,18.5927254 127.911555,17.703321 127.911555,13.5187138 C127.911555,10.4809172 130.534203,8 135.132057,8 C139.275676,8 142.087417,10.3707433 142.61873,14.0355298 L138.66626,14.0355298 C138.210996,12.1104902 136.729077,11.3703216 134.904939,11.3703216 C133.194874,11.3703216 132.054146,11.9251977 132.054146,13.2212441 C132.054146,14.6665261 133.498041,15.0371112 136.233734,15.5549288 C139.426745,16.1849236 143,17.370796 143,21.2589352 C143,24.2957301 140.60447,27 135.588349,27 C130.990494,27 127.721434,24.7404323 127,20.4807064" id="Fill-16" fill="#002C66" fill-rule="nonzero"></path>
                    <path d="M155.651076,19.8887717 L155.651076,18.2221402 C154.496992,18.7028993 153.703864,18.8150764 152.080538,19.0364259 C149.80749,19.2958355 148.364641,19.8146547 148.364641,21.3330522 C148.364641,22.7412757 149.373367,23.5185029 150.961574,23.5185029 C153.126335,23.5185029 155.651076,22.0371639 155.651076,19.8887717 M144.071216,21.5924618 C144.071216,17.7413811 147.642729,16.7037428 151.93518,16.1488666 C154.67747,15.7782815 155.578885,15.6300474 155.578885,14.2218239 C155.578885,12.556194 154.280418,11.5916711 152.152729,11.5916711 C149.553845,11.5916711 148.256355,12.556194 147.931494,14.6665261 L144,14.6665261 C144.540459,9.92604112 147.823207,8 152.008346,8 C157.45488,8 159.691832,11.1489721 159.691832,15.9635741 L159.691832,22.259515 C159.691832,23.2230364 160.12498,23.5555614 160.845916,23.5555614 C161.170777,23.5555614 161.568804,23.4814444 162,23.3702688 L162,26.5192409 C161.603924,26.7405904 160.773725,27 159.584521,27 C157.996315,27 156.55249,26.2217712 156.228605,24.2596732 C154.785757,25.9633632 152.801474,27 150.240637,27 C146.740339,27 144.071216,25.112019 144.071216,21.5924618" id="Fill-18" fill="#002C66" fill-rule="nonzero"></path>
                    <path d="M163,20.4807064 L167.447071,20.4807064 C167.864337,22.5559831 169.688592,23.4433843 171.739979,23.4433843 C173.716341,23.4433843 174.74409,22.7412757 174.74409,21.5564048 C174.74409,20.1111228 173.413155,19.7785978 171.056526,19.2597786 C168.016444,18.5927254 163.911614,17.703321 163.911614,13.5187138 C163.911614,10.4809172 166.533402,8 171.13258,8 C175.274409,8 178.087359,10.3707433 178.619733,14.0355298 L174.668037,14.0355298 C174.211716,12.1104902 172.729702,11.3703216 170.904419,11.3703216 C169.193217,11.3703216 168.054471,11.9251977 168.054471,13.2212441 C168.054471,14.6665261 169.498458,15.0371112 172.235355,15.5549288 C175.427544,16.1849236 179,17.370796 179,21.2589352 C179,24.2957301 176.605344,27 171.5889,27 C166.99075,27 163.722508,24.7404323 163,20.4807064" id="Fill-20" fill="#002C66" fill-rule="nonzero"></path>
                    <g id="Fill-22-Clipped">
                        <mask id="mask-4" fill="white">
                            <use xlink:href="#path-3"></use>
                        </mask>
                        <g id="path-18"></g>
                        <polygon id="Fill-22" fill="#002C66" fill-rule="nonzero" mask="url(#mask-4)" points="180.595 26.3659 185.292 26.3659 185.292 21.4849 180.595 21.4849"></polygon>
                    </g>
                    <g id="Fill-24-Clipped">
                        <mask id="mask-6" fill="white">
                            <use xlink:href="#path-5"></use>
                        </mask>
                        <g id="path-18"></g>
                        <path d="M186.0706,17.3437 C186.0706,11.6127 189.8056,7.8767 195.1686,7.8767 C199.9026,7.8767 203.0076,10.7977 203.6356,15.2357 L199.3836,15.2357 C198.9776,12.9057 197.4606,11.5007 195.0936,11.5007 C192.0986,11.5007 190.5826,13.8667 190.5826,17.3057 C190.5826,20.8557 192.2106,23.2607 195.2786,23.2607 C197.6456,23.2607 199.1616,21.8537 199.5696,19.5247 L203.7846,19.5247 C203.1556,23.9617 199.9756,26.8467 195.2046,26.8467 C189.6946,26.8467 186.0706,23.0017 186.0706,17.3437" id="Fill-24" fill="#002C66" fill-rule="nonzero" mask="url(#mask-6)"></path>
                    </g>
                    <g id="Fill-25-Clipped">
                        <mask id="mask-8" fill="white">
                            <use xlink:href="#path-7"></use>
                        </mask>
                        <g id="path-18"></g>
                        <path d="M218.6971,17.3799 C218.6971,13.8299 216.7741,11.4629 213.8901,11.4629 C211.0051,11.4629 209.0831,13.8299 209.0831,17.3799 C209.0831,20.8939 211.0051,23.2599 213.8901,23.2599 C216.7741,23.2599 218.6971,20.8939 218.6971,17.3799 M204.4231,17.3799 C204.4231,11.8699 208.4171,7.8769 213.8901,7.8769 C219.4001,7.8769 223.3571,11.8699 223.3571,17.3799 C223.3571,22.8539 219.4001,26.8469 213.8901,26.8469 C208.4171,26.8469 204.4231,22.8539 204.4231,17.3799" id="Fill-25" fill="#002C66" fill-rule="nonzero" mask="url(#mask-8)"></path>
                    </g>
                    <g id="Fill-26-Clipped">
                        <mask id="mask-10" fill="white">
                            <use xlink:href="#path-9"></use>
                        </mask>
                        <g id="path-18"></g>
                        <path d="M224.4012,8.3569 L228.7642,8.3569 L228.7642,10.8359 C229.7622,9.1339 231.7232,7.8769 234.0892,7.8769 C237.0852,7.8769 238.8232,9.3929 239.8212,12.0189 C240.9302,9.5029 243.2612,7.8769 245.8862,7.8769 C250.3972,7.8769 252.3572,10.4649 252.3572,15.8639 L252.3572,26.3659 L247.9942,26.3659 L247.9942,15.9009 C247.9942,13.0529 247.0702,11.6119 244.5182,11.6119 C241.8922,11.6119 240.5242,13.7559 240.5242,16.6029 L240.5242,26.3659 L236.2342,26.3659 L236.2342,16.1959 C236.2342,13.2379 235.3102,11.6119 232.8702,11.6119 C230.0592,11.6119 228.7642,13.5709 228.7642,16.5669 L228.7642,26.3659 L224.4012,26.3659 L224.4012,8.3569 Z" id="Fill-26" fill="#002C66" fill-rule="nonzero" mask="url(#mask-10)"></path>
                    </g>
                </g>
            </g>
        </g>
    </g>
</svg>