<?xml version="1.0" encoding="UTF-8"?>
<svg width="253px" height="36px" viewBox="0 0 253 36" version="1.1" xmlns="http://www.w3.org/2000/svg" xmlns:xlink="http://www.w3.org/1999/xlink">
    <!-- Generator: Sketch 63.1 (92452) - https://sketch.com -->
    <title>Group-27</title>
    <desc>Created with Sketch.</desc>
    <defs>
        <polygon id="path-1" points="0 0.1951 20.6928 0.1951 20.6928 27.7601 0 27.7601"></polygon>
        <polygon id="path-3" points="0 35.8048 252.357 35.8048 252.357 -0.0002 0 -0.0002"></polygon>
        <polygon id="path-5" points="0 35.8048 252.357 35.8048 252.357 -0.0002 0 -0.0002"></polygon>
        <polygon id="path-7" points="0 35.8048 252.357 35.8048 252.357 -0.0002 0 -0.0002"></polygon>
        <polygon id="path-9" points="0 35.8048 252.357 35.8048 252.357 -0.0002 0 -0.0002"></polygon>
    </defs>
    <g id="Desktop-(Round-#3-de-cambios)" stroke="none" stroke-width="1" fill="none" fill-rule="evenodd">
        <g id="Home-Final" transform="translate(-154.000000, -3745.000000)">
            <g id="Nuevo-Footer" transform="translate(0.000000, 3633.000000)">
                <g id="Footer">
                    <g id="Group-27" transform="translate(154.000000, 111.000000)">
                        <g id="Group-3" transform="translate(0.000000, 0.804800)">
                            <g id="Fill-1-Clipped">
                                <mask id="mask-2" fill="white">
                                    <use xlink:href="#path-1"></use>
                                </mask>
                                <g id="path-9"></g>
                                <path d="M-0.0002,18.5721 L4.6698,18.5721 C5.1258,21.9131 7.4418,23.5461 11.0488,23.5461 C14.1248,23.5461 16.1368,22.2931 16.1368,20.1671 C16.1368,17.3951 13.3268,16.7881 10.2138,16.1041 C5.7328,15.1551 0.7218,13.8641 0.7218,7.7131 C0.7218,3.0431 4.3278,0.1951 10.3658,0.1951 C15.5288,0.1951 19.4778,2.9281 20.2368,8.0541 L15.4158,8.0541 C15.0738,5.8151 12.9478,4.2581 10.2508,4.2581 C6.9858,4.2581 5.3538,5.4731 5.3538,7.6371 C5.3538,10.4471 8.1638,11.0541 11.2388,11.6621 C15.7198,12.5731 20.6928,13.8261 20.6928,19.8631 C20.6928,24.6091 16.7828,27.7601 10.8968,27.7601 C4.4048,27.7601 0.5698,24.2301 -0.0002,18.5721" id="Fill-1" fill="#FFFFFF" fill-rule="nonzero" mask="url(#mask-2)"></path>
                            </g>
                        </g>
                        <path d="M21.9061,21.0097 L21.9061,9.5807 L26.3861,9.5807 L26.3861,20.7817 C26.3861,23.4017 27.1841,24.7687 29.8041,24.7687 C32.9931,24.7687 34.3221,22.3767 34.3221,18.8077 L34.3221,9.5807 L38.8021,9.5807 L38.8021,28.0717 L34.3221,28.0717 L34.3221,25.3767 C33.1831,27.1607 31.6271,28.5657 28.8171,28.5657 C24.1841,28.5657 21.9061,25.8317 21.9061,21.0097" id="Fill-4" fill="#FFFFFF" fill-rule="nonzero"></path>
                        <path d="M54.0638,18.8075 C54.0638,15.1245 52.1278,12.7705 49.1658,12.7705 C46.1658,12.7705 44.3438,15.1245 44.3438,18.8075 C44.3438,22.4905 46.1658,24.8825 49.1658,24.8825 C52.1278,24.8825 54.0638,22.4905 54.0638,18.8075 L54.0638,18.8075 Z M40.0908,9.5805 L44.5718,9.5805 L44.5718,11.7835 C45.6348,10.2265 47.8748,9.0875 50.1908,9.0875 C55.1268,9.0875 58.8478,13.1875 58.8478,18.8075 C58.8478,24.4645 55.1268,28.5655 50.1908,28.5655 C47.8368,28.5655 45.6348,27.5015 44.5718,26.0595 L44.5718,36.8045 L40.0908,36.8045 L40.0908,9.5805 Z" id="Fill-6" fill="#FFFFFF" fill-rule="nonzero"></path>
                        <path d="M73.5399,16.5673 C73.3119,14.4033 71.6419,12.7333 68.9459,12.7333 C66.2499,12.7333 64.5039,14.4413 64.3519,16.5673 L73.5399,16.5673 Z M59.6049,18.8073 C59.6049,13.0353 63.5929,9.0873 69.0599,9.0873 C74.3369,9.0873 78.2099,12.8463 78.2099,18.2373 C78.2099,18.8073 78.1719,19.2623 78.0969,19.7183 L64.2759,19.7183 C64.5039,22.7563 66.4019,24.7303 69.2119,24.7303 C71.2619,24.7303 72.8569,23.5913 73.4259,21.5413 L77.9069,21.5413 C76.8439,26.0593 73.5779,28.5653 69.0979,28.5653 C63.5929,28.5653 59.6049,24.5783 59.6049,18.8073 L59.6049,18.8073 Z" id="Fill-8" fill="#FFFFFF" fill-rule="nonzero"></path>
                        <path d="M79.2337,9.581 L83.7137,9.581 L83.7137,12.391 C84.5117,10.834 85.9917,9.087 88.8787,9.087 C89.2197,9.087 89.5617,9.125 89.9417,9.201 L89.9417,13.568 C89.5237,13.492 89.0677,13.492 88.5747,13.492 C85.3847,13.492 83.7137,15.276 83.7137,18.997 L83.7137,28.072 L79.2337,28.072 L79.2337,9.581 Z" id="Fill-10" fill="#FFFFFF" fill-rule="nonzero"></path>
                        <polygon id="Fill-12" fill="#FFFFFF" fill-rule="nonzero" points="96.6219 5.6323 88.4209 5.6323 88.4209 1.4933 109.6839 1.4933 109.6839 5.6323 101.5199 5.6323 101.5199 28.0723 96.6219 28.0723"></polygon>
                        <path d="M117.7313,21.2753 L117.7313,19.5673 C116.5163,20.0603 115.6803,20.1743 113.9723,20.4023 C111.5803,20.6683 110.0613,21.1993 110.0613,22.7553 C110.0613,24.1983 111.1243,24.9963 112.7953,24.9963 C115.0733,24.9963 117.7313,23.4773 117.7313,21.2753 M105.5433,23.0223 C105.5433,19.0733 109.3023,18.0103 113.8203,17.4413 C116.7063,17.0603 117.6553,16.9083 117.6553,15.4663 C117.6553,13.7573 116.2883,12.7703 114.0473,12.7703 C111.3143,12.7703 109.9473,13.7573 109.6053,15.9213 L105.4673,15.9213 C106.0363,11.0613 109.4923,9.0873 113.8963,9.0873 C119.6293,9.0873 121.9833,12.3143 121.9833,17.2503 L121.9833,23.7053 C121.9833,24.6923 122.4393,25.0343 123.1983,25.0343 C123.5403,25.0343 123.9583,24.9583 124.4133,24.8443 L124.4133,28.0713 C123.9963,28.2993 123.1233,28.5653 121.8703,28.5653 C120.1993,28.5653 118.6803,27.7683 118.3383,25.7553 C116.8193,27.5023 114.7313,28.5653 112.0363,28.5653 C108.3523,28.5653 105.5433,26.6293 105.5433,23.0223" id="Fill-14" fill="#FFFFFF" fill-rule="nonzero"></path>
                        <path d="M124.3358,21.8827 L128.7778,21.8827 C129.1958,24.0087 131.0178,24.9207 133.0688,24.9207 C135.0428,24.9207 136.0678,24.1987 136.0678,22.9837 C136.0678,21.5037 134.7388,21.1617 132.3858,20.6307 C129.3478,19.9467 125.2478,19.0347 125.2478,14.7447 C125.2478,11.6317 127.8668,9.0877 132.4608,9.0877 C136.5998,9.0877 139.4088,11.5167 139.9408,15.2767 L135.9918,15.2767 C135.5368,13.3017 134.0558,12.5427 132.2338,12.5427 C130.5248,12.5427 129.3858,13.1117 129.3858,14.4417 C129.3858,15.9217 130.8288,16.3017 133.5628,16.8327 C136.7518,17.4787 140.3208,18.6937 140.3208,22.6797 C140.3208,25.7937 137.9288,28.5657 132.9168,28.5657 C128.3228,28.5657 125.0568,26.2487 124.3358,21.8827" id="Fill-16" fill="#FFFFFF" fill-rule="nonzero"></path>
                        <path d="M154.0638,21.2753 L154.0638,19.5673 C152.8488,20.0603 152.0128,20.1743 150.3048,20.4023 C147.9128,20.6683 146.3948,21.1993 146.3948,22.7553 C146.3948,24.1983 147.4578,24.9963 149.1278,24.9963 C151.4058,24.9963 154.0638,23.4773 154.0638,21.2753 M141.8758,23.0223 C141.8758,19.0733 145.6348,18.0103 150.1528,17.4413 C153.0388,17.0603 153.9878,16.9083 153.9878,15.4663 C153.9878,13.7573 152.6208,12.7703 150.3808,12.7703 C147.6468,12.7703 146.2798,13.7573 145.9378,15.9213 L141.7998,15.9213 C142.3698,11.0613 145.8248,9.0873 150.2288,9.0873 C155.9618,9.0873 158.3158,12.3143 158.3158,17.2503 L158.3158,23.7053 C158.3158,24.6923 158.7718,25.0343 159.5308,25.0343 C159.8728,25.0343 160.2908,24.9583 160.7468,24.8443 L160.7468,28.0713 C160.3288,28.2993 159.4558,28.5653 158.2028,28.5653 C156.5318,28.5653 155.0128,27.7683 154.6708,25.7553 C153.1518,27.5023 151.0638,28.5653 148.3688,28.5653 C144.6858,28.5653 141.8758,26.6293 141.8758,23.0223" id="Fill-18" fill="#FFFFFF" fill-rule="nonzero"></path>
                        <path d="M161.4275,21.8827 L165.8695,21.8827 C166.2875,24.0087 168.1095,24.9207 170.1605,24.9207 C172.1345,24.9207 173.1595,24.1987 173.1595,22.9837 C173.1595,21.5037 171.8305,21.1617 169.4775,20.6307 C166.4395,19.9467 162.3395,19.0347 162.3395,14.7447 C162.3395,11.6317 164.9585,9.0877 169.5525,9.0877 C173.6915,9.0877 176.5015,11.5167 177.0325,15.2767 L173.0835,15.2767 C172.6285,13.3017 171.1475,12.5427 169.3255,12.5427 C167.6165,12.5427 166.4775,13.1117 166.4775,14.4417 C166.4775,15.9217 167.9205,16.3017 170.6535,16.8327 C173.8435,17.4787 177.4125,18.6937 177.4125,22.6797 C177.4125,25.7937 175.0205,28.5657 170.0085,28.5657 C165.4145,28.5657 162.1485,26.2487 161.4275,21.8827" id="Fill-20" fill="#FFFFFF" fill-rule="nonzero"></path>
                        <g id="Fill-22-Clipped" transform="translate(0.000000, 1.000000)">
                            <mask id="mask-4" fill="white">
                                <use xlink:href="#path-3"></use>
                            </mask>
                            <g id="path-11"></g>
                            <polygon id="Fill-22" fill="#FFFFFF" fill-rule="nonzero" mask="url(#mask-4)" points="178.702 27.0718 183.525 27.0718 183.525 22.0598 178.702 22.0598"></polygon>
                        </g>
                        <g id="Fill-24-Clipped" transform="translate(0.000000, 1.000000)">
                            <mask id="mask-6" fill="white">
                                <use xlink:href="#path-5"></use>
                            </mask>
                            <g id="path-11"></g>
                            <path d="M184.3201,17.8075 C184.3201,11.9225 188.1551,8.0875 193.6611,8.0875 C198.5211,8.0875 201.7101,11.0865 202.3561,15.6435 L197.9891,15.6435 C197.5721,13.2505 196.0151,11.8085 193.5851,11.8085 C190.5091,11.8085 188.9521,14.2385 188.9521,17.7695 C188.9521,21.4135 190.6231,23.8825 193.7751,23.8825 C196.2051,23.8825 197.7611,22.4395 198.1791,20.0475 L202.5071,20.0475 C201.8621,24.6035 198.5971,27.5655 193.6991,27.5655 C188.0411,27.5655 184.3201,23.6165 184.3201,17.8075" id="Fill-24" fill="#FFFFFF" fill-rule="nonzero" mask="url(#mask-6)"></path>
                        </g>
                        <g id="Fill-25-Clipped" transform="translate(0.000000, 1.000000)">
                            <mask id="mask-8" fill="white">
                                <use xlink:href="#path-7"></use>
                            </mask>
                            <g id="path-11"></g>
                            <path d="M217.8069,17.8451 C217.8069,14.2001 215.8329,11.7701 212.8709,11.7701 C209.9089,11.7701 207.9349,14.2001 207.9349,17.8451 C207.9349,21.4521 209.9089,23.8821 212.8709,23.8821 C215.8329,23.8821 217.8069,21.4521 217.8069,17.8451 M203.1509,17.8451 C203.1509,12.1881 207.2509,8.0881 212.8709,8.0881 C218.5279,8.0881 222.5909,12.1881 222.5909,17.8451 C222.5909,23.4651 218.5279,27.5661 212.8709,27.5661 C207.2509,27.5661 203.1509,23.4651 203.1509,17.8451" id="Fill-25" fill="#FFFFFF" fill-rule="nonzero" mask="url(#mask-8)"></path>
                        </g>
                        <g id="Fill-26-Clipped" transform="translate(0.000000, 1.000000)">
                            <mask id="mask-10" fill="white">
                                <use xlink:href="#path-9"></use>
                            </mask>
                            <g id="path-11"></g>
                            <path d="M223.6526,8.581 L228.1326,8.581 L228.1326,11.124 C229.1586,9.378 231.1716,8.087 233.6006,8.087 C236.6756,8.087 238.4606,9.644 239.4856,12.34 C240.6246,9.758 243.0176,8.087 245.7136,8.087 C250.3446,8.087 252.3576,10.745 252.3576,16.289 L252.3576,27.072 L247.8766,27.072 L247.8766,16.327 C247.8766,13.403 246.9276,11.922 244.3086,11.922 C241.6126,11.922 240.2076,14.124 240.2076,17.048 L240.2076,27.072 L235.8026,27.072 L235.8026,16.63 C235.8026,13.593 234.8536,11.922 232.3476,11.922 C229.4626,11.922 228.1326,13.935 228.1326,17.01 L228.1326,27.072 L223.6526,27.072 L223.6526,8.581 Z" id="Fill-26" fill="#FFFFFF" fill-rule="nonzero" mask="url(#mask-10)"></path>
                        </g>
                    </g>
                </g>
            </g>
        </g>
    </g>
</svg>