<?xml version="1.0" encoding="UTF-8"?>
<svg width="18px" height="18px" viewBox="0 0 18 18" version="1.1" xmlns="http://www.w3.org/2000/svg" xmlns:xlink="http://www.w3.org/1999/xlink">
    <!-- Generator: Sketch 63.1 (92452) - https://sketch.com -->
    <title>Group-2</title>
    <desc>Created with Sketch.</desc>
    <defs>
        <polygon id="path-1" points="0 0.00546016484 17.3022321 0.00546016484 17.3022321 17.3056319 0 17.3056319"></polygon>
    </defs>
    <g id="Page-1" stroke="none" stroke-width="1" fill="none" fill-rule="evenodd">
        <g id="Group-2" transform="translate(0.000000, -0.000000)">
            <g id="Group-3">
                <g id="Fill-1-Clipped">
                    <mask id="mask-2" fill="white">
                        <use xlink:href="#path-1"></use>
                    </mask>
                    <g id="path-7"></g>
                    <path d="M8.65113324,0.00546016484 C6.30161401,0.00546016484 6.00700549,0.015418956 5.08427198,0.0575206044 C4.16346154,0.0995192308 3.53458104,0.245776099 2.98430632,0.459649725 C2.41541896,0.680700549 1.93296703,0.976510989 1.45199176,1.45745192 C0.971050824,1.9384272 0.675240385,2.42087912 0.45418956,2.98976648 C0.240315934,3.54004121 0.0940590659,4.1689217 0.0520604396,5.08973214 C0.00995879121,6.01246566 0,6.30707418 0,8.65659341 C0,11.0060783 0.00995879121,11.3006868 0.0520604396,12.2234203 C0.0940590659,13.1442308 0.240315934,13.7731113 0.45418956,14.323386 C0.675240385,14.8922734 0.971050824,15.3747253 1.45199176,15.8557005 C1.93296703,16.3366415 2.41541896,16.6324519 2.98430632,16.8535371 C3.53458104,17.0673764 4.16346154,17.2136332 5.08427198,17.2556319 C6.00700549,17.2977335 6.30161401,17.3076923 8.65113324,17.3076923 C11.0006181,17.3076923 11.2952266,17.2977335 12.2179602,17.2556319 C13.1387706,17.2136332 13.7676511,17.0673764 14.3179258,16.8535371 C14.8868132,16.6324519 15.3692651,16.3366415 15.8502404,15.8557005 C16.3311813,15.3747253 16.6269918,14.8922734 16.8480769,14.323386 C17.0619162,13.7731113 17.2081731,13.1442308 17.2501717,12.2234203 C17.2922734,11.3006868 17.3022321,11.0060783 17.3022321,8.65659341 C17.3022321,6.30707418 17.2922734,6.01246566 17.2501717,5.08973214 C17.2081731,4.1689217 17.0619162,3.54004121 16.8480769,2.98976648 C16.6269918,2.42087912 16.3311813,1.9384272 15.8502404,1.45745192 C15.3692651,0.976510989 14.8868132,0.680700549 14.3179258,0.459649725 C13.7676511,0.245776099 13.1387706,0.0995192308 12.2179602,0.0575206044 C11.2952266,0.015418956 11.0006181,0.00546016484 8.65113324,0.00546016484 Z M12.1469093,1.61466346 C12.9903846,1.653125 13.4484547,1.79405907 13.7532967,1.91253434 C14.1571085,2.06947115 14.4452953,2.25693681 14.7480082,2.55968407 C15.0507555,2.86239698 15.2382212,3.15058379 15.395158,3.5543956 C15.5136332,3.85923764 15.6545673,4.31730769 15.6930288,5.16078297 C15.7346497,6.07300824 15.7434753,6.34663462 15.7434753,8.65659341 C15.7434753,10.9665179 15.7346497,11.2401442 15.6930288,12.1523695 C15.6545673,12.9958448 15.5136332,13.4539148 15.395158,13.7587569 C15.2382212,14.1625687 15.0507555,14.4507555 14.7480082,14.7534684 C14.4452953,15.0562157 14.1571085,15.2436813 13.7532967,15.4006181 C13.4484547,15.5190934 12.9903846,15.6600275 12.1469093,15.698489 C11.2348214,15.7401099 10.9612294,15.7489354 8.65113324,15.7489354 C6.34100275,15.7489354 6.06744505,15.7401099 5.1553228,15.698489 C4.31184753,15.6600275 3.85377747,15.5190934 3.54893544,15.4006181 C3.14512363,15.2436813 2.85693681,15.0562157 2.5542239,14.7534684 C2.25151099,14.4507555 2.06401099,14.1625687 1.90707418,13.7587569 C1.7885989,13.4539148 1.64766484,12.9958448 1.6092033,12.1523695 C1.56758242,11.2401442 1.55875687,10.9665179 1.55875687,8.65659341 C1.55875687,6.34663462 1.56758242,6.07300824 1.6092033,5.16078297 C1.64766484,4.31730769 1.7885989,3.85923764 1.90707418,3.5543956 C2.06401099,3.15058379 2.25147665,2.86239698 2.5542239,2.55968407 C2.85693681,2.25693681 3.14512363,2.06947115 3.54893544,1.91253434 C3.85377747,1.79405907 4.31184753,1.653125 5.1553228,1.61466346 C6.06754808,1.57304258 6.34117445,1.56421703 8.65113324,1.56421703 C10.9610577,1.56421703 11.2346841,1.57304258 12.1469093,1.61466346 Z" id="Fill-1" fill="#F1E9DC" fill-rule="nonzero" mask="url(#mask-2)"></path>
                </g>
            </g>
            <path d="M8.50001739,12.4210545 C6.88673863,12.4210545 5.57894554,11.1132614 5.57894554,9.50001739 C5.57894554,7.88673863 6.88673863,6.57894554 8.50001739,6.57894554 C10.1132614,6.57894554 11.4210545,7.88673863 11.4210545,9.50001739 C11.4210545,11.1132614 10.1132614,12.4210545 8.50001739,12.4210545 Z M8.50001739,5 C6.01470264,5 4,7.01470264 4,9.50001739 C4,11.9852974 6.01470264,14 8.50001739,14 C10.9852974,14 13,11.9852974 13,9.50001739 C13,7.01470264 10.9852974,5 8.50001739,5 L8.50001739,5 Z" id="Fill-4" fill="#F1E9DC" fill-rule="nonzero"></path>
            <path d="M14,4.00001654 C14,4.55230645 13.5522734,5 12.9999835,5 C12.4477266,5 12,4.55230645 12,4.00001654 C12,3.44772663 12.4477266,3 12.9999835,3 C13.5522734,3 14,3.44772663 14,4.00001654" id="Fill-5" fill="#F1E9DC" fill-rule="nonzero"></path>
        </g>
    </g>
</svg>