<?xml version="1.0" encoding="UTF-8"?>
<svg width="18px" height="18px" viewBox="0 0 18 18" version="1.1" xmlns="http://www.w3.org/2000/svg" xmlns:xlink="http://www.w3.org/1999/xlink">
    <!-- Generator: Sketch 63.1 (92452) - https://sketch.com -->
    <title>Shape</title>
    <desc>Created with Sketch.</desc>
    <g id="Page-1" stroke="none" stroke-width="1" fill="none" fill-rule="evenodd">
        <path d="M16.7142857,0 L1.28169643,0 C0.574553571,0 0,0.582589286 0,1.29776786 L0,16.7022321 C0,17.4174107 0.574553571,18 1.28169643,18 L16.7142857,18 C17.4214286,18 18,17.4174107 18,16.7022321 L18,1.29776786 C18,0.582589286 17.4214286,0 16.7142857,0 Z M5.44017857,15.4285714 L2.77232143,15.4285714 L2.77232143,6.83839286 L5.44419643,6.83839286 L5.44419643,15.4285714 L5.44017857,15.4285714 Z M4.10625,5.66517857 C3.25044643,5.66517857 2.559375,4.97008929 2.559375,4.11830357 C2.559375,3.26651786 3.25044643,2.57142857 4.10625,2.57142857 C4.95803571,2.57142857 5.653125,3.26651786 5.653125,4.11830357 C5.653125,4.97410714 4.96205357,5.66517857 4.10625,5.66517857 L4.10625,5.66517857 Z M15.440625,15.4285714 L12.7727679,15.4285714 L12.7727679,11.25 C12.7727679,10.2535714 12.7526786,8.971875 11.3866071,8.971875 C9.99642857,8.971875 9.78348214,10.0566964 9.78348214,11.1776786 L9.78348214,15.4285714 L7.115625,15.4285714 L7.115625,6.83839286 L9.675,6.83839286 L9.675,8.01160714 L9.71116071,8.01160714 C10.06875,7.33660714 10.940625,6.62544643 12.2383929,6.62544643 C14.9383929,6.62544643 15.440625,8.40535714 15.440625,10.7196429 L15.440625,15.4285714 L15.440625,15.4285714 Z" id="Shape" fill="#F3F3F3" fill-rule="nonzero"></path>
    </g>
</svg>