<?xml version="1.0" encoding="UTF-8"?>
<svg width="25px" height="17px" viewBox="0 0 25 17" version="1.1" xmlns="http://www.w3.org/2000/svg" xmlns:xlink="http://www.w3.org/1999/xlink">
    <!-- Generator: Sketch 63.1 (92452) - https://sketch.com -->
    <title>Shape</title>
    <desc>Created with Sketch.</desc>
    <g id="Page-1" stroke="none" stroke-width="1" fill="none" fill-rule="evenodd">
        <path d="M23.6725885,2.65992448 C23.3945234,1.61291927 22.5752474,0.788330729 21.5350156,0.508494792 C19.6495208,0 12.0889036,0 12.0889036,0 C12.0889036,0 4.52833073,0 2.64279167,0.508494792 C1.6025599,0.788375 0.783283854,1.61291927 0.50521875,2.65992448 C0,4.55768229 0,8.51717708 0,8.51717708 C0,8.51717708 0,12.4766719 0.50521875,14.3744297 C0.783283854,15.4214349 1.6025599,16.2116693 2.64279167,16.4915052 C4.52833073,17 12.0889036,17 12.0889036,17 C12.0889036,17 19.6494766,17 21.5350156,16.4915052 C22.5752474,16.2116693 23.3945234,15.4214349 23.6725885,14.3744297 C24.1778073,12.4766719 24.1778073,8.51717708 24.1778073,8.51717708 C24.1778073,8.51717708 24.1778073,4.55768229 23.6725885,2.65992448 Z M9.61615625,12.1121016 L9.61615625,4.9222526 L15.9353307,8.51726562 L9.61615625,12.1121016 Z" id="Shape" fill="#F3F3F3" fill-rule="nonzero"></path>
    </g>
</svg>