<?xml version="1.0" encoding="UTF-8"?>
<svg width="18px" height="18px" viewBox="0 0 18 18" version="1.1" xmlns="http://www.w3.org/2000/svg" xmlns:xlink="http://www.w3.org/1999/xlink">
    <!-- Generator: Sketch 63.1 (92452) - https://sketch.com -->
    <title>Shape</title>
    <desc>Created with Sketch.</desc>
    <g id="Page-1" stroke="none" stroke-width="1" fill="none" fill-rule="evenodd">
        <path d="M16.0714286,0 L1.92857143,0 C0.863839286,0 0,0.863839286 0,1.92857143 L0,16.0714286 C0,17.1361607 0.863839286,18 1.92857143,18 L16.0714286,18 C17.1361607,18 18,17.1361607 18,16.0714286 L18,1.92857143 C18,0.863839286 17.1361607,0 16.0714286,0 Z M14.1066964,6.38035714 C14.1147321,6.49285714 14.1147321,6.609375 14.1147321,6.721875 C14.1147321,10.2053571 11.4629464,14.2191964 6.61741071,14.2191964 C5.12276786,14.2191964 3.73660714,13.7852679 2.57142857,13.0379464 C2.784375,13.0620536 2.98928571,13.0700893 3.20625,13.0700893 C4.43973214,13.0700893 5.57276786,12.6522321 6.47678571,11.9450893 C5.31964286,11.9209821 4.34732143,11.1616071 4.01383929,10.1169643 C4.41964286,10.1772321 4.78526786,10.1772321 5.203125,10.06875 C3.99776786,9.82366071 3.09375,8.76294643 3.09375,7.48125 L3.09375,7.44910714 C3.44330357,7.64598214 3.853125,7.76651786 4.28303571,7.78258929 C3.54891221,7.29427369 3.10837797,6.47053502 3.10982143,5.58883929 C3.10982143,5.09866071 3.23839286,4.64866071 3.46741071,4.25892857 C4.76517857,5.85803571 6.71383929,6.90267857 8.89955357,7.01517857 C8.52589286,5.22723214 9.86383929,3.77678571 11.4709821,3.77678571 C12.2303571,3.77678571 12.9133929,4.09419643 13.3955357,4.60848214 C13.9901786,4.49598214 14.5607143,4.275 15.0669643,3.97366071 C14.8700893,4.584375 14.45625,5.09866071 13.9098214,5.42410714 C14.4401786,5.36785714 14.9544643,5.21919643 15.4285714,5.01428571 C15.0709821,5.540625 14.6209821,6.00669643 14.1066964,6.38035714 L14.1066964,6.38035714 Z" id="Shape" fill="#F3F3F3" fill-rule="nonzero"></path>
    </g>
</svg>